<svg width="120" height="120" viewBox="0 0 120 120" fill="none" xmlns="http://www.w3.org/2000/svg">
<path d="M108.986 74.2455C108.481 71.3444 107.451 68.619 105.965 66.0992C102.072 59.495 100.838 51.7052 102.35 44.1897C105.149 30.2801 99.754 15.3964 87.4121 6.70349C71.2518 -4.6789 48.7632 -1.23029 36.7925 14.4993C31.669 21.2318 29.2193 29.1063 29.229 36.897C29.241 46.7918 24.5271 56.0706 16.6869 62.1072C5.54826 70.6835 -0.57746 81.9271 1.35205 93.0011C4.7336 112.407 31.5697 123.94 61.292 118.761C91.0143 113.582 112.368 93.6517 108.986 74.2455Z" fill="url(#paint0_linear)"/>
<path opacity="0.1" d="M107.359 63.1871C107.359 55.174 102.262 48.3532 95.1337 45.7851C88.6159 32.1619 74.6964 22.729 58.6139 22.729C57.1101 22.729 55.6259 22.8142 54.164 22.9749C50.7933 19.416 46.0269 17.1923 40.7382 17.1923C30.5244 17.1923 22.2445 25.4722 22.2445 35.6859C22.2445 38.2135 22.753 40.6217 23.6709 42.8161C20.1672 48.8029 18.1558 55.7641 18.1558 63.1871C18.1558 70.6102 20.1672 77.5714 23.6709 83.5582C22.753 85.7528 22.2445 88.161 22.2445 90.6883C22.2445 100.902 30.5244 109.182 40.7382 109.182C46.0269 109.182 50.7933 106.958 54.164 103.399C55.6259 103.56 57.1101 103.645 58.6139 103.645C74.6962 103.645 88.6159 94.2124 95.1337 80.5892C102.262 78.0211 107.359 71.2003 107.359 63.1871V63.1871ZM58.6139 25.0207C73.075 25.0207 85.6829 33.1049 92.1567 44.9914C91.0878 44.7994 89.9892 44.6935 88.8653 44.6935C87.661 44.6935 86.4846 44.8124 85.3444 45.0324C79.5215 36.4862 69.7125 30.8631 58.6139 30.8631C58.6068 30.8631 58.5997 30.8634 58.5926 30.8634C58.0309 28.779 57.1142 26.8418 55.911 25.1177C56.8041 25.0549 57.7053 25.0207 58.6139 25.0207ZM40.7382 72.1947C39.2797 72.1947 37.8629 72.3689 36.5018 72.6879C35.2439 69.7716 34.5456 66.5597 34.5456 63.1871C34.5456 59.8146 35.2441 56.6027 36.5018 53.6864C37.8629 54.0056 39.2799 54.1796 40.7382 54.1796C49.7771 54.1796 57.2966 47.6932 58.908 39.1222C66.5265 39.2141 73.3042 42.8626 77.6542 48.482C73.229 51.861 70.3716 57.1891 70.3716 63.1869C70.3716 69.1847 73.229 74.5128 77.6542 77.8918C73.3042 83.5114 66.5267 87.1599 58.908 87.2516C57.2966 78.6809 49.7771 72.1947 40.7382 72.1947V72.1947ZM79.5621 47.2062C74.8504 41.0448 67.4879 37.014 59.1928 36.8343C59.2162 36.4541 59.2318 36.0721 59.2318 35.6859C59.2318 34.8286 59.1685 33.9866 59.0556 33.1602C68.8955 33.3029 77.604 38.2004 82.9821 45.6544C81.7826 46.0571 80.6381 46.5785 79.5621 47.2062ZM34.293 53.0234C32.9803 56.1528 32.2538 59.5865 32.2538 63.1871C32.2538 66.7877 32.9803 70.2215 34.293 73.3509C33.1329 73.7824 32.0287 74.3281 30.9922 74.9723C29.4416 71.352 28.5817 67.3682 28.5817 63.1871C28.5817 59.006 29.4416 55.0223 30.9922 51.402C32.0287 52.0462 33.1327 52.5918 34.293 53.0234ZM59.1928 89.5399C67.4881 89.3603 74.8504 85.3295 79.5621 79.1681C80.6378 79.7958 81.7823 80.317 82.9823 80.7196C77.6042 88.1736 68.8955 93.0711 59.0558 93.2139C59.1688 92.3877 59.232 91.5455 59.232 90.6881C59.2318 90.3024 59.2162 89.9201 59.1928 89.5399ZM20.4475 63.1871C20.4475 56.717 22.0678 50.6191 24.9211 45.2742C26.0268 47.0946 27.4399 48.7066 29.0854 50.0438C27.2901 54.0615 26.2899 58.5096 26.2899 63.1874C26.2899 67.8651 27.2901 72.3129 29.0854 76.3309C27.4399 77.6679 26.0271 79.2802 24.9211 81.1005C22.068 75.7552 20.4475 69.6573 20.4475 63.1871V63.1871ZM58.6139 101.354C57.705 101.354 56.8041 101.319 55.911 101.257C57.1142 99.5325 58.0309 97.5953 58.5926 95.5109C58.5997 95.5109 58.6068 95.5111 58.6139 95.5111C69.7125 95.5111 79.5215 89.8881 85.3444 81.3418C86.4846 81.5616 87.6607 81.6808 88.8653 81.6808C89.9894 81.6808 91.0881 81.5749 92.1567 81.3828C85.6832 93.2693 73.075 101.354 58.6139 101.354V101.354Z" fill="#0DABDF"/>
<path d="M58.6138 90.6983C40.7903 90.6983 26.2898 76.1979 26.2898 58.3743C26.2898 40.5506 40.7903 26.0501 58.6138 26.0501C76.4373 26.0501 90.9378 40.5508 90.9378 58.3743C90.9378 76.1979 76.4373 90.6983 58.6138 90.6983ZM58.6138 28.3419C42.0539 28.3419 28.5816 41.8142 28.5816 58.3743C28.5816 74.9342 42.0539 88.4066 58.6138 88.4066C75.1737 88.4066 88.646 74.9342 88.646 58.3743C88.646 41.8142 75.1737 28.3419 58.6138 28.3419Z" fill="#49C9F4"/>
<path d="M58.6126 84.734C44.0775 84.734 32.2524 72.9087 32.2524 58.3738C32.2524 43.839 44.0775 32.0137 58.6126 32.0137C73.1477 32.0137 84.9727 43.839 84.9727 58.3738C84.9727 72.9087 73.1477 84.734 58.6126 84.734V84.734ZM58.6126 34.3052C45.3412 34.3052 34.5442 45.1022 34.5442 58.3736C34.5442 71.645 45.3412 82.442 58.6126 82.442C71.884 82.442 82.681 71.645 82.681 58.3736C82.681 45.1022 71.884 34.3052 58.6126 34.3052V34.3052Z" fill="#0DABDF"/>
<path d="M101.925 71.4529C109.146 64.2318 109.146 52.524 101.925 45.3029C94.7039 38.0818 82.9961 38.0818 75.775 45.3029C68.5538 52.524 68.5538 64.2318 75.775 71.4529C82.9961 78.6741 94.7039 78.6741 101.925 71.4529Z" fill="#49C9F4"/>
<path d="M88.8647 72.0192C96.4006 72.0192 102.51 65.9101 102.51 58.3742C102.51 50.8383 96.4006 44.7293 88.8647 44.7293C81.3288 44.7293 75.2197 50.8383 75.2197 58.3742C75.2197 65.9101 81.3288 72.0192 88.8647 72.0192Z" fill="white"/>
<path d="M90.4457 64.4138H86.0886C85.4558 64.4138 84.9427 63.9009 84.9427 63.268C84.9427 62.635 85.4558 62.1221 86.0886 62.1221H90.4457C91.1628 62.1221 91.7465 61.5386 91.7465 60.8213C91.7465 60.1039 91.163 59.5205 90.4457 59.5205H87.2858C85.305 59.5205 83.6932 57.9089 83.6932 55.9279C83.6932 53.9469 85.3048 52.3353 87.2858 52.3353H91.6431C92.2759 52.3353 92.789 52.8482 92.789 53.4812C92.789 54.1142 92.2759 54.6271 91.6431 54.6271H87.2858C86.5687 54.6271 85.985 55.2106 85.985 55.9279C85.985 56.6452 86.5685 57.2287 87.2858 57.2287H90.4457C92.4267 57.2287 94.0383 58.8403 94.0383 60.8213C94.0383 62.802 92.4267 64.4138 90.4457 64.4138Z" fill="#0DABDF"/>
<path d="M88.8639 66.2357C88.2311 66.2357 87.718 65.7228 87.718 65.0898V51.6592C87.718 51.0262 88.2311 50.5133 88.8639 50.5133C89.4967 50.5133 90.0098 51.0262 90.0098 51.6592V65.0898C90.0098 65.7228 89.4967 66.2357 88.8639 66.2357Z" fill="#0DABDF"/>
<path d="M53.7978 98.9451C61.0189 91.7239 61.0189 80.0162 53.7978 72.795C46.5767 65.5739 34.8689 65.5739 27.6478 72.795C20.4266 80.0162 20.4266 91.7239 27.6478 98.9451C34.8689 106.166 46.5767 106.166 53.7978 98.9451Z" fill="#49C9F4"/>
<path d="M40.7393 99.5203C48.2752 99.5203 54.3843 93.4112 54.3843 85.8753C54.3843 78.3394 48.2752 72.2304 40.7393 72.2304C33.2034 72.2304 27.0944 78.3394 27.0944 85.8753C27.0944 93.4112 33.2034 99.5203 40.7393 99.5203Z" fill="white"/>
<path fill-rule="evenodd" clip-rule="evenodd" d="M33.6533 86.38C33.6074 86.4577 33.6106 86.5548 33.6614 86.6293L40.6581 96.9025C40.7015 96.9662 40.7737 97.0044 40.8509 97.0044C40.9281 97.0044 41.0004 96.9662 41.0438 96.9025L48.0405 86.6293C48.0913 86.5548 48.0944 86.4577 48.0486 86.38L41.0519 74.5254C41.0099 74.4543 40.9335 74.4107 40.8509 74.4107C40.7684 74.4107 40.6919 74.4543 40.65 74.5254L33.6533 86.38ZM37.9059 88.8621L40.85 93.1886L43.7942 88.8621L40.85 90.1969L37.9059 88.8621ZM36.4895 85.9948L40.85 87.9648L45.2106 85.9948L40.85 78.6084L36.4895 85.9948Z" fill="#0DABDF"/>
<path d="M53.805 43.9491C61.0261 36.728 61.0261 25.0203 53.805 17.7991C46.5839 10.578 34.8761 10.578 27.655 17.7991C20.4338 25.0202 20.4338 36.728 27.655 43.9491C34.8761 51.1703 46.5839 51.1703 53.805 43.9491Z" fill="#49C9F4"/>
<path d="M108.505 58.3735C108.505 54.631 107.443 50.9871 105.435 47.8352C105.094 47.302 104.386 47.1447 103.852 47.4848C103.319 47.8249 103.162 48.5333 103.502 49.0671C105.275 51.8502 106.213 55.0683 106.213 58.3735C106.213 67.9391 98.4309 75.7212 88.8653 75.7212C79.2997 75.7212 71.5175 67.9391 71.5175 58.3735C71.5175 48.8079 79.2997 41.0257 88.8653 41.0257C92.2539 41.0257 95.5394 42.0064 98.3672 43.862C98.8966 44.2094 99.6068 44.0616 99.9538 43.5325C100.301 43.0033 100.154 42.2931 99.6244 41.9456C98.0014 40.8809 96.245 40.0714 94.4081 39.531C87.6201 26.688 74.123 17.9151 58.6137 17.9151C57.5932 17.9151 56.5825 17.9577 55.5808 18.0331C51.977 13.8724 46.6615 11.2323 40.7379 11.2323C29.9086 11.2323 21.0984 20.0425 21.0984 30.8718C21.0984 33.8644 21.774 36.7014 22.9763 39.2423C19.9037 44.9419 18.1558 51.4562 18.1558 58.373C18.1558 65.2891 19.9051 71.8023 22.9772 77.5019C21.7745 80.0433 21.0986 82.881 21.0986 85.8742C21.0986 96.7035 29.9089 105.514 40.7381 105.514C46.6615 105.514 51.9767 102.874 55.5806 98.7136C56.5823 98.7893 57.5932 98.8312 58.6139 98.8312C74.1244 98.8312 87.6211 90.0558 94.4081 77.2109C102.546 74.8126 108.505 67.2779 108.505 58.3735V58.3735ZM40.7381 103.222C31.1725 103.222 23.3904 95.4403 23.3904 85.8747C23.3904 76.3091 31.1725 68.5269 40.7381 68.5269C50.3038 68.5269 58.0859 76.3091 58.0859 85.8747C58.0859 95.4403 50.3038 103.222 40.7381 103.222ZM58.6139 96.5399C58.1519 96.5399 57.6924 96.5289 57.2348 96.5117C59.2199 93.4437 60.3779 89.7929 60.3779 85.8747C60.3779 75.0454 51.5677 66.2352 40.7384 66.2352C33.8805 66.2352 27.8357 69.7709 24.322 75.1128C21.843 70.0555 20.4475 64.3749 20.4475 58.3735C20.4475 52.3723 21.8446 46.6935 24.3234 41.6369C27.8373 46.9772 33.8812 50.512 40.7379 50.512C44.6225 50.512 48.3807 49.3771 51.6059 47.2302C52.1328 46.8796 52.2756 46.1682 51.925 45.6413C51.5741 45.1142 50.8625 44.9717 50.3361 45.3223C47.4881 47.2181 44.1692 48.2203 40.7379 48.2203C31.1723 48.2203 23.3902 40.4381 23.3902 30.8725C23.3902 21.3069 31.1723 13.5247 40.7379 13.5247C50.3035 13.5247 58.0857 21.3069 58.0857 30.8725C58.0857 34.1383 57.1694 37.3229 55.4362 40.0827C55.0997 40.6185 55.2613 41.3259 55.7971 41.6626C56.3327 41.9988 57.0402 41.8372 57.3771 41.3016C59.3397 38.1764 60.3775 34.57 60.3775 30.8725C60.3775 26.9531 59.2187 23.3014 57.2327 20.2327C57.691 20.2162 58.1512 20.2073 58.6137 20.2073C72.5513 20.2073 84.766 27.7183 91.4279 38.904C90.5823 38.7933 89.727 38.7342 88.865 38.7342C78.0358 38.7342 69.2255 47.5444 69.2255 58.3737C69.2255 69.203 78.0358 78.0132 88.865 78.0132C89.7345 78.0132 90.5891 77.9504 91.4288 77.8404C84.7678 89.0275 72.5527 96.5399 58.6139 96.5399V96.5399Z" fill="#0DABDF"/>
<path d="M40.7358 44.5181C48.2717 44.5181 54.3807 38.409 54.3807 30.8731C54.3807 23.3372 48.2717 17.2282 40.7358 17.2282C33.1999 17.2282 27.0908 23.3372 27.0908 30.8731C27.0908 38.409 33.1999 44.5181 40.7358 44.5181Z" fill="white"/>
<path d="M45.2627 30.3987C46.0474 29.7358 46.5438 28.7664 46.5438 27.6875C46.5438 26.1735 45.5671 24.8747 44.1862 24.3373V23.1688C44.1862 22.6697 43.764 22.265 43.2432 22.265C42.7223 22.265 42.3001 22.6697 42.3001 23.1688V24.0725H40.414V23.1688C40.414 22.6697 39.9919 22.265 39.471 22.265C38.9502 22.265 38.528 22.6697 38.528 23.1688V24.0725H36.6419C36.121 24.0725 35.6988 24.4772 35.6988 24.9763C35.6988 25.4753 36.121 25.88 36.6419 25.88H37.5849V34.9175H36.6419C36.121 34.9175 35.6988 35.3221 35.6988 35.8212C35.6988 36.3203 36.121 36.7249 36.6419 36.7249H38.528V37.6287C38.528 38.1278 38.9502 38.5324 39.471 38.5324C39.9919 38.5324 40.414 38.1278 40.414 37.6287V36.7249H42.3001V37.6287C42.3001 38.1278 42.7223 38.5324 43.2432 38.5324C43.764 38.5324 44.1862 38.1278 44.1862 37.6287V36.4602C45.5671 35.9228 46.5438 34.624 46.5438 33.11C46.5438 32.0311 46.0474 31.0617 45.2627 30.3987ZM39.471 25.88H42.7716C43.8116 25.88 44.6577 26.6908 44.6577 27.6875C44.6577 28.6842 43.8116 29.495 42.7716 29.495H39.471V25.88ZM42.7716 34.9175H39.471V31.3025H42.7716C43.8116 31.3025 44.6577 32.1133 44.6577 33.11C44.6577 34.1066 43.8116 34.9175 42.7716 34.9175Z" fill="#0DABDF"/>
<path fill-rule="evenodd" clip-rule="evenodd" d="M45.4649 30.2148C46.1317 29.5626 46.5438 28.6705 46.5438 27.6875C46.5438 26.1735 45.5671 24.8747 44.1862 24.3373V23.1688C44.1862 22.6697 43.764 22.265 43.2432 22.265C42.7223 22.265 42.3001 22.6697 42.3001 23.1688V24.0725H40.414V23.1688C40.414 22.6697 39.9919 22.265 39.471 22.265C38.9502 22.265 38.528 22.6697 38.528 23.1688V24.0725H36.6419C36.121 24.0725 35.6988 24.4772 35.6988 24.9763C35.6988 25.4753 36.121 25.88 36.6419 25.88H37.5849V34.9175H36.6419C36.121 34.9175 35.6988 35.3221 35.6988 35.8212C35.6988 36.3203 36.121 36.7249 36.6419 36.7249H38.528V37.6287C38.528 38.1278 38.9502 38.5324 39.471 38.5324C39.9919 38.5324 40.414 38.1278 40.414 37.6287V36.7249H42.3001V37.6287C42.3001 38.1278 42.7223 38.5324 43.2432 38.5324C43.764 38.5324 44.1862 38.1278 44.1862 37.6287V36.4602C45.5671 35.9228 46.5438 34.624 46.5438 33.11C46.5438 32.1269 46.1317 31.2348 45.4649 30.5826C45.3999 30.5189 45.3324 30.4576 45.2627 30.3987C45.3324 30.3398 45.3999 30.2784 45.4649 30.2148ZM45.6646 30.3987C46.3739 29.6998 46.8149 28.7436 46.8149 27.6874C46.8149 26.1166 45.842 24.7693 44.4573 24.1564V23.1687C44.4573 22.5091 43.9028 21.9939 43.2432 21.9939C42.5836 21.9939 42.029 22.5091 42.029 23.1687V23.8013H40.6852V23.1687C40.6852 22.5091 40.1306 21.9939 39.471 21.9939C38.8114 21.9939 38.2569 22.5091 38.2569 23.1687V23.8013H36.6419C35.9823 23.8013 35.4277 24.3166 35.4277 24.9762C35.4277 25.6358 35.9823 26.1511 36.6419 26.1511H37.3138V34.6463H36.6419C35.9823 34.6463 35.4277 35.1616 35.4277 35.8212C35.4277 36.4807 35.9823 36.996 36.6419 36.996H38.2569V37.6286C38.2569 38.2882 38.8114 38.8035 39.471 38.8035C40.1306 38.8035 40.6852 38.2882 40.6852 37.6286V36.996H42.029V37.6286C42.029 38.2882 42.5836 38.8035 43.2432 38.8035C43.9028 38.8035 44.4573 38.2882 44.4573 37.6286V36.641C45.842 36.0281 46.8149 34.6808 46.8149 33.1099C46.8149 32.0537 46.3739 31.0975 45.6646 30.3987ZM42.7716 26.1511H39.7421V29.2238H42.7716C43.6729 29.2238 44.3866 28.5236 44.3866 27.6874C44.3866 26.8513 43.6729 26.1511 42.7716 26.1511ZM39.7421 34.6463H42.7716C43.6729 34.6463 44.3866 33.9461 44.3866 33.1099C44.3866 32.2738 43.6729 31.5736 42.7716 31.5736H39.7421V34.6463ZM39.471 25.88V29.495H42.7716C43.8116 29.495 44.6577 28.6842 44.6577 27.6875C44.6577 26.6908 43.8116 25.88 42.7716 25.88H39.471ZM42.7716 34.9175C43.8116 34.9175 44.6577 34.1066 44.6577 33.11C44.6577 32.1133 43.8116 31.3025 42.7716 31.3025H39.471V34.9175H42.7716Z" fill="#0DABDF"/>
<path d="M13.0356 79.1594C12.7422 79.1594 12.4491 79.0476 12.2252 78.8237C11.7776 78.3763 11.7776 77.6508 12.2252 77.2034L14.517 74.9116C14.9646 74.4641 15.6899 74.4641 16.1375 74.9116C16.5851 75.359 16.5851 76.0846 16.1375 76.5319L13.8457 78.8237C13.622 79.0476 13.3289 79.1594 13.0356 79.1594V79.1594Z" fill="#49C9F4"/>
<path d="M61.6099 13.4217C61.3166 13.4217 61.0235 13.3099 60.7996 13.086C60.352 12.6386 60.352 11.913 60.7996 11.4657L63.0913 9.17391C63.5389 8.72633 64.2643 8.72633 64.7118 9.17391C65.1594 9.62127 65.1594 10.3468 64.7118 10.7942L62.4201 13.086C62.1964 13.3096 61.903 13.4217 61.6099 13.4217Z" fill="#49C9F4"/>
<path d="M96.181 91.083C95.8876 91.083 95.5945 90.9712 95.3706 90.7473C94.923 90.2999 94.923 89.5743 95.3706 89.127L97.6624 86.8352C98.1099 86.3876 98.8353 86.3876 99.2829 86.8352C99.7305 87.2826 99.7305 88.0082 99.2829 88.4555L96.9911 90.7473C96.7674 90.971 96.4743 91.083 96.181 91.083Z" fill="#49C9F4"/>
<path d="M61.8201 112.723C61.5267 112.723 61.2336 112.611 61.0097 112.387L59.5283 110.906L58.0469 112.387C57.5993 112.835 56.874 112.835 56.4264 112.387C55.9788 111.94 55.9788 111.214 56.4264 110.767L58.7182 108.475C59.1657 108.028 59.8911 108.028 60.3387 108.475L62.6304 110.767C63.078 111.214 63.078 111.94 62.6304 112.387C62.4065 112.611 62.1132 112.723 61.8201 112.723Z" fill="#49C9F4"/>
<path d="M64.9882 54.8471C64.6948 54.8471 64.4017 54.7353 64.1778 54.5114L62.6964 53.03L61.215 54.5114C60.7674 54.959 60.0421 54.959 59.5945 54.5114C59.1469 54.064 59.1469 53.3384 59.5945 52.8911L61.8862 50.5993C62.3338 50.1517 63.0592 50.1517 63.5068 50.5993L65.7985 52.8911C66.2461 53.3384 66.2461 54.064 65.7985 54.5114C65.5746 54.7353 65.2815 54.8471 64.9882 54.8471V54.8471Z" fill="#49C9F4"/>
<defs>
<linearGradient id="paint0_linear" x1="138.548" y1="61.7801" x2="-34.9119" y2="58.0177" gradientUnits="userSpaceOnUse">
<stop stop-color="#A9E6FA" stop-opacity="0.1"/>
<stop offset="1" stop-color="#2DD6FB" stop-opacity="0.5"/>
</linearGradient>
</defs>
</svg>
