<svg width="120" height="120" viewBox="0 0 120 120" fill="none" xmlns="http://www.w3.org/2000/svg">
<g clip-path="url(#clip0)">
<path d="M110.986 74.2459C110.481 71.3448 109.451 68.6193 107.965 66.0995C104.072 59.4953 102.838 51.7056 104.35 44.1901C107.149 30.2805 101.754 15.3968 89.4121 6.70385C73.2518 -4.67853 50.7632 -1.22992 38.7925 14.4997C33.669 21.2322 31.2193 29.1066 31.229 36.8974C31.241 46.7922 26.5271 56.071 18.6869 62.1075C7.54826 70.6839 1.42254 81.9275 3.35205 93.0015C6.7336 112.407 33.5697 123.941 63.292 118.762C93.0143 113.582 114.368 93.652 110.986 74.2459Z" fill="url(#paint0_linear)"/>
<path opacity="0.11" d="M84.0653 45.5738V20.7957C84.0653 18.1632 81.9313 16.0291 79.2987 16.0291H32.5407C29.9082 16.0291 27.7741 18.1632 27.7741 20.7957V112.042C27.7741 114.674 29.9082 116.809 32.5407 116.809H79.2987C81.9313 116.809 84.0653 114.674 84.0653 112.042V75.9893H84.0086V45.5738H84.0653Z" fill="#5E31A7"/>
<path d="M88.8319 16.9975V108.244C88.8319 110.876 86.6979 113.01 84.0653 113.01H37.3073C34.6748 113.01 32.5407 110.876 32.5407 108.244V16.9975C32.5407 14.365 34.6748 12.2309 37.3073 12.2309H84.0653C86.6981 12.2309 88.8319 14.365 88.8319 16.9975V16.9975Z" fill="white"/>
<path d="M88.8319 24.4879V16.9975C88.8319 14.365 86.6979 12.2309 84.0653 12.2309H37.3073C34.6748 12.2309 32.5407 14.365 32.5407 16.9975V24.4879H88.8319Z" fill="#997CDB"/>
<path d="M40.5547 19.888C41.2554 19.888 41.8235 19.3199 41.8235 18.6191C41.8235 17.9184 41.2554 17.3503 40.5547 17.3503C39.8539 17.3503 39.2858 17.9184 39.2858 18.6191C39.2858 19.3199 39.8539 19.888 40.5547 19.888Z" fill="white"/>
<path d="M45.0735 19.888C45.7742 19.888 46.3423 19.3199 46.3423 18.6191C46.3423 17.9184 45.7742 17.3503 45.0735 17.3503C44.3727 17.3503 43.8046 17.9184 43.8046 18.6191C43.8046 19.3199 44.3727 19.888 45.0735 19.888Z" fill="white"/>
<path d="M49.5922 19.888C50.293 19.888 50.8611 19.3199 50.8611 18.6191C50.8611 17.9184 50.293 17.3503 49.5922 17.3503C48.8915 17.3503 48.3234 17.9184 48.3234 18.6191C48.3234 19.3199 48.8915 19.888 49.5922 19.888Z" fill="white"/>
<path d="M45.3204 85.3188H42.9753C42.4298 85.3188 41.9284 84.9536 41.8213 84.4188C41.6751 83.6893 42.2289 83.049 42.9326 83.049H45.2778C45.8232 83.049 46.3246 83.4142 46.4317 83.949C46.5781 84.6785 46.0243 85.3188 45.3204 85.3188Z" fill="#5E31A7"/>
<path d="M74.7591 99.8456H39.8041C39.1774 99.8456 38.6692 99.3376 38.6692 98.7107V88.4966C38.6692 87.8699 39.1774 87.3616 39.8041 87.3616H74.7591C75.3858 87.3616 75.894 87.8699 75.894 88.4966V98.7107C75.894 99.3376 75.3861 99.8456 74.7591 99.8456Z" fill="#997CDB"/>
<path d="M113.4 101.478H112.705V100.783C112.705 100.238 112.339 99.7364 111.804 99.6293C111.075 99.4835 110.435 100.037 110.435 100.741V101.478H109.74C109.195 101.478 108.693 101.844 108.586 102.378C108.44 103.108 108.994 103.748 109.697 103.748H110.435V104.443C110.435 104.989 110.8 105.49 111.336 105.597C112.065 105.743 112.705 105.189 112.705 104.486V103.748H113.443C114.146 103.748 114.7 103.108 114.554 102.378C114.447 101.844 113.945 101.478 113.4 101.478Z" fill="#997CDB"/>
<path d="M16.8374 107.458H16.1424V106.763C16.1424 106.218 15.7769 105.716 15.2417 105.609C14.5122 105.463 13.8725 106.017 13.8725 106.721V107.458H13.1775C12.6321 107.458 12.1307 107.824 12.0236 108.358C11.8774 109.088 12.4312 109.728 13.1349 109.728H13.8725V110.423C13.8725 110.969 14.238 111.47 14.7732 111.577C15.5027 111.723 16.1424 111.169 16.1424 110.466V109.728H16.88C17.5837 109.728 18.1375 109.088 17.9913 108.358C17.8842 107.824 17.3828 107.458 16.8374 107.458Z" fill="#997CDB"/>
<path d="M10.8372 38.4583H10.1424V37.7635C10.1424 37.218 9.7772 36.7166 9.24243 36.6093C8.51291 36.4629 7.8726 37.0172 7.8726 37.7206V38.4583H7.17781C6.63238 38.4583 6.13098 38.8235 6.02361 39.3582C5.87721 40.0878 6.4315 40.7281 7.13491 40.7281H7.8726V41.4229C7.8726 41.9683 8.23781 42.4697 8.77258 42.5771C9.50209 42.7235 10.1424 42.1692 10.1424 41.4658V40.7281H10.8801C11.5835 40.7281 12.1378 40.0878 11.9914 39.3582C11.8843 38.8235 11.3829 38.4583 10.8372 38.4583Z" fill="#997CDB"/>
<path d="M101.32 98.2161C100.989 98.2161 100.657 98.166 100.332 98.065C99.4866 97.8021 98.7943 97.2258 98.3821 96.4421C97.9704 95.6583 97.8882 94.761 98.151 93.9158C98.694 92.1707 100.554 91.1924 102.3 91.7352C103.146 91.998 103.838 92.5743 104.25 93.3581C104.662 94.1418 104.744 95.0391 104.481 95.8844C104.218 96.7296 103.642 97.4222 102.858 97.8341C102.376 98.0874 101.85 98.2161 101.32 98.2161V98.2161ZM101.317 93.8552C100.872 93.8552 100.458 94.1425 100.319 94.5899C100.236 94.8561 100.262 95.139 100.392 95.3859C100.521 95.6329 100.74 95.8147 101.006 95.8975C101.272 95.9802 101.555 95.9547 101.802 95.8247C102.05 95.6948 102.231 95.4767 102.314 95.2102C102.397 94.9438 102.371 94.6609 102.241 94.414C102.112 94.167 101.893 93.9854 101.627 93.9026C101.524 93.8704 101.419 93.8552 101.317 93.8552V93.8552Z" fill="#997CDB"/>
<path d="M18.314 26.2164C17.9888 26.2164 17.6583 26.1681 17.3319 26.0666C16.4864 25.8038 15.7941 25.2275 15.3821 24.4437C14.9704 23.6599 14.8882 22.7627 15.151 21.9174C15.4139 21.0721 15.9902 20.3796 16.774 19.9679C17.558 19.5561 18.455 19.4737 19.3003 19.7368C20.1458 19.9997 20.8383 20.576 21.25 21.3597C21.662 22.1435 21.7439 23.0405 21.4811 23.886C21.0401 25.3046 19.7272 26.2164 18.314 26.2164V26.2164ZM18.3167 21.8568C17.8712 21.8568 17.4576 22.1442 17.3185 22.5913C17.2356 22.8578 17.2615 23.1406 17.3913 23.3876C17.5212 23.6345 17.7395 23.8163 18.006 23.8992C18.5553 24.0694 19.1425 23.7619 19.3139 23.2117C19.3967 22.9452 19.3708 22.6626 19.241 22.4154C19.1112 22.1685 18.8928 21.9866 18.6264 21.9038C18.5235 21.872 18.4193 21.8568 18.3167 21.8568ZM20.3975 23.5469H20.3998H20.3975Z" fill="#997CDB"/>
<path d="M90.0679 73.7796H87.7981V108.329C87.7981 110.331 86.1689 111.961 84.1664 111.961H37.4908C35.4884 111.961 33.8591 110.331 33.8591 108.329V96.3375C33.8591 95.7109 33.3509 95.2026 32.7242 95.2026C32.0975 95.2026 31.5893 95.7109 31.5893 96.3375V108.329C31.5893 111.583 34.2368 114.23 37.4908 114.23H84.1664C87.4207 114.23 90.0679 111.583 90.0679 108.329V73.7796Z" fill="#5E31A7"/>
<path fill-rule="evenodd" clip-rule="evenodd" d="M90.0677 16.9862V41.3214H87.7981V25.6598H33.8591V89.9598C33.8591 90.5865 33.3509 91.0947 32.7242 91.0947C32.0975 91.0947 31.5893 90.5865 31.5893 89.9598V16.9862C31.5893 13.7322 34.2368 11.0847 37.4908 11.0847H84.1662C87.4204 11.0847 90.0677 13.7322 90.0677 16.9862ZM33.8591 16.9862V23.39H87.7981V16.9862C87.7981 14.9838 86.1689 13.3545 84.1664 13.3545H37.4908C35.4884 13.3545 33.8591 14.9838 33.8591 16.9862Z" fill="#5E31A7"/>
<path d="M112.289 55.3942C112.289 68.3806 101.762 78.9081 88.7752 78.9081C75.7888 78.9081 65.2613 68.3806 65.2613 55.3942C65.2613 42.4078 75.7888 31.8803 88.7752 31.8803C101.762 31.8803 112.289 42.4078 112.289 55.3942ZM88.7752 67.0623C95.2193 67.0623 100.443 61.8383 100.443 55.3942C100.443 48.9501 95.2193 43.7261 88.7752 43.7261C82.3311 43.7261 77.1071 48.9501 77.1071 55.3942C77.1071 61.8383 82.3311 67.0623 88.7752 67.0623Z" fill="#997CDB" stroke="#5E31A7" stroke-width="2"/>
<path d="M100.443 55.3943C100.443 53.3402 99.9115 51.4081 98.9783 49.7303L108.928 43.272C111.061 46.8113 112.289 50.9582 112.289 55.3943C112.289 59.0884 111.438 62.5812 109.921 65.6896L99.5904 59.7801C100.14 58.4252 100.443 56.9441 100.443 55.3943Z" fill="#CBC1E1" stroke="#5E31A7" stroke-width="2"/>
<path d="M58.5601 58.345H39.809C39.3599 58.345 38.947 57.9798 38.8588 57.445C38.7385 56.7155 39.1945 56.0752 39.7738 56.0752H58.5251C58.9742 56.0752 59.3871 56.4404 59.4753 56.9751C59.5956 57.7047 59.1396 58.345 58.5601 58.345Z" fill="#5E31A7"/>
<path d="M58.5601 62.4306H39.809C39.3599 62.4306 38.947 62.0654 38.8588 61.5306C38.7385 60.8011 39.1945 60.1608 39.7738 60.1608H58.5251C58.9742 60.1608 59.3871 60.526 59.4753 61.0608C59.5956 61.7903 59.1396 62.4306 58.5601 62.4306Z" fill="#5E31A7"/>
<path d="M41.2977 70.9128C40.9963 70.9128 40.7073 70.793 40.4944 70.5796L39.1711 69.254C38.7283 68.8105 38.729 68.0919 39.1725 67.649C39.616 67.2064 40.3349 67.2069 40.7775 67.6504L41.2975 68.1713L41.8177 67.6504C42.2606 67.2069 42.9792 67.2062 43.4227 67.649C43.8662 68.0919 43.8669 68.8105 43.4241 69.254L42.1008 70.5796C41.8881 70.793 41.5994 70.9128 41.2977 70.9128V70.9128Z" fill="#5E31A7"/>
<path d="M42.3633 51.5355H41.2C39.7709 51.5355 38.6124 50.377 38.6124 48.948V45.4978C38.6124 44.0688 39.7709 42.9103 41.2 42.9103H42.3803C43.8094 42.9103 44.9679 44.0688 44.9679 45.4978V48.967C44.9681 50.3834 43.7998 51.5355 42.3633 51.5355ZM40.8822 45.4978V48.948C40.8822 49.1234 41.0246 49.2657 41.2 49.2657H42.3803C42.5558 49.2657 42.6981 49.1234 42.6981 48.948V45.4978C42.6981 45.3224 42.5558 45.1801 42.3803 45.1801H41.2C41.0246 45.1801 40.8822 45.3224 40.8822 45.4978Z" fill="#5E31A7"/>
<path d="M47.464 50.8417V45.1801H47.0547C46.9406 45.1801 46.8323 45.131 46.7533 45.0489C45.8122 44.0724 46.4884 42.9103 47.4363 42.9103H49.3341C49.5549 42.9103 49.7338 43.0893 49.7338 43.31V50.4649C49.7338 51.4116 48.5741 52.0878 47.5984 51.1506C47.5141 51.0695 47.464 50.9583 47.464 50.8417Z" fill="#5E31A7"/>
</g>
<defs>
<linearGradient id="paint0_linear" x1="127" y1="16.5004" x2="-28.0865" y2="64.2148" gradientUnits="userSpaceOnUse">
<stop stop-color="#BFA5FF" stop-opacity="0"/>
<stop offset="0.949704" stop-color="#C0A6FF"/>
</linearGradient>
<clipPath id="clip0">
<rect width="120" height="120" fill="white"/>
</clipPath>
</defs>
</svg>
