<svg width="120" height="120" viewBox="0 0 120 120" fill="none" xmlns="http://www.w3.org/2000/svg">
<g clip-path="url(#clip0)">
<path d="M113.986 74.2455C113.481 71.3444 112.451 68.619 110.965 66.0992C107.072 59.495 105.838 51.7052 107.35 44.1897C110.149 30.2801 104.754 15.3964 92.4121 6.70349C76.2518 -4.6789 53.7632 -1.23029 41.7925 14.4993C36.669 21.2318 34.2193 29.1063 34.229 36.897C34.241 46.7918 29.5271 56.0706 21.6869 62.1072C10.5483 70.6835 4.42254 81.9271 6.35205 93.0011C9.7336 112.407 36.5697 123.94 66.292 118.761C96.0143 113.582 117.368 93.6517 113.986 74.2455Z" fill="url(#paint0_linear)"/>
<path d="M113.955 108.911C112.942 108.911 111.928 108.525 111.157 107.753C109.614 106.211 109.614 103.7 111.157 102.158C112.7 100.615 115.21 100.615 116.753 102.158C118.296 103.7 118.296 106.211 116.753 107.753C115.981 108.525 114.968 108.911 113.955 108.911ZM113.955 103.709C113.635 103.709 113.316 103.831 113.073 104.074C112.587 104.56 112.587 105.351 113.073 105.838C113.559 106.324 114.351 106.324 114.837 105.838C115.323 105.351 115.323 104.56 114.837 104.074C114.594 103.831 114.274 103.709 113.955 103.709Z" fill="#627BFF"/>
<path d="M110.041 12.8181C109.028 12.8181 108.014 12.4323 107.243 11.6608C105.7 10.1181 105.7 7.60744 107.243 6.06474C108.786 4.52204 111.296 4.52204 112.839 6.06474C113.586 6.81183 113.998 7.80579 113.998 8.86289C113.998 9.91972 113.586 10.9134 112.839 11.6608V11.661C112.067 12.4323 111.054 12.8181 110.041 12.8181ZM110.041 7.61611C109.721 7.61611 109.402 7.73778 109.159 7.98085C108.673 8.46726 108.673 9.2588 109.159 9.74521C109.645 10.2311 110.437 10.2311 110.923 9.74521C110.923 9.74494 110.923 9.74494 110.923 9.74494C111.158 9.50945 111.289 9.1962 111.289 8.86316C111.289 8.53013 111.159 8.2166 110.923 7.98112C110.68 7.73778 110.36 7.61611 110.041 7.61611V7.61611Z" fill="#627BFF"/>
<path d="M36.9548 109.911C35.9416 109.911 34.9281 109.525 34.1569 108.754C32.6142 107.211 32.6142 104.7 34.1567 103.158C35.6994 101.615 38.21 101.615 39.7527 103.158C41.2954 104.7 41.2954 107.211 39.7527 108.754C38.9815 109.525 37.9683 109.911 36.9548 109.911V109.911ZM36.9548 104.709C36.6353 104.709 36.3161 104.83 36.0728 105.074C35.5866 105.56 35.5866 106.352 36.0728 106.838C36.5592 107.324 37.3505 107.324 37.8369 106.838C38.323 106.352 38.323 105.56 37.8366 105.074C37.5938 104.83 37.2743 104.709 36.9548 104.709Z" fill="#627BFF"/>
<path d="M96.7754 115.236H95.9454V114.406C95.9454 113.755 95.5088 113.156 94.8701 113.028C93.9992 112.854 93.2355 113.515 93.2355 114.355V115.236H92.4055C91.7541 115.236 91.1555 115.673 91.0279 116.311C90.8539 117.182 91.5148 117.946 92.3549 117.946H93.2355V118.776C93.2355 119.427 93.6721 120.026 94.3108 120.154C95.1817 120.328 95.9454 119.667 95.9454 118.827V117.946H96.826C97.6658 117.946 98.327 117.182 98.153 116.311C98.0254 115.673 97.4268 115.236 96.7754 115.236Z" fill="#627BFF"/>
<path d="M29.0058 8.43049H28.1758V7.60047C28.1758 6.94903 27.7393 6.35044 27.1006 6.2228C26.2296 6.04883 25.466 6.70976 25.466 7.5498V8.43049H24.636C23.9846 8.43049 23.386 8.86704 23.2583 9.50575C23.0844 10.3767 23.7453 11.1403 24.5853 11.1403H25.466V11.9703C25.466 12.6218 25.9026 13.2204 26.5413 13.348C27.4122 13.522 28.1758 12.861 28.1758 12.021V11.1403H29.0565C29.8963 11.1403 30.5575 10.3767 30.3835 9.50575C30.2559 8.86704 29.6573 8.43049 29.0058 8.43049V8.43049Z" fill="#627BFF"/>
<rect opacity="0.11" x="8" y="27.8004" width="100.271" height="63.9661" rx="8" fill="#4A57DF"/>
<rect x="13.9259" y="25.0392" width="96.0738" height="61.4978" rx="8" fill="white" stroke="#627BFF" stroke-width="3"/>
<path d="M43.8999 43.1816H108.829V64.2967H43.8999V43.1816Z" fill="#627BFF"/>
<path d="M35.666 70.3663C45.0489 70.3663 52.6552 62.76 52.6552 53.3771C52.6552 43.9942 45.0489 36.3879 35.666 36.3879C26.2831 36.3879 18.6768 43.9942 18.6768 53.3771C18.6768 62.76 26.2831 70.3663 35.666 70.3663Z" fill="#627BFF"/>
<path d="M67.012 65.3529H58.5577C57.9235 65.3529 57.3405 64.9282 57.2159 64.3063C57.0459 63.458 57.6899 62.7135 58.5081 62.7135H66.9621C67.5963 62.7135 68.1794 63.1382 68.3042 63.76C68.4745 64.6083 67.8299 65.3529 67.012 65.3529V65.3529Z" fill="white"/>
<path d="M90.7665 70.8955H58.5577C57.9235 70.8955 57.3405 70.4708 57.2159 69.849C57.0459 69.0007 57.6899 68.2561 58.5081 68.2561H90.7166C91.3508 68.2561 91.9339 68.6808 92.0587 69.3027C92.229 70.151 91.5844 70.8955 90.7665 70.8955V70.8955Z" fill="white"/>
<path d="M90.7665 75.3822H58.5577C57.9235 75.3822 57.3405 74.9575 57.2159 74.3357C57.0459 73.4874 57.6899 72.7428 58.5081 72.7428H90.7166C91.3508 72.7428 91.9339 73.1675 92.0587 73.7893C92.229 74.6376 91.5844 75.3822 90.7665 75.3822V75.3822Z" fill="white"/>
<path d="M35.6641 67.5995C27.8222 67.5995 21.4423 61.2195 21.4423 53.3777C21.4423 45.5358 27.8222 39.1558 35.6641 39.1558C43.506 39.1558 49.8859 45.5358 49.8859 53.3777C49.8859 61.2195 43.506 67.5995 35.6641 67.5995ZM35.6641 41.7952C29.2775 41.7952 24.0816 46.9911 24.0816 53.3777C24.0816 59.7642 29.2775 64.9601 35.6641 64.9601C42.0506 64.9601 47.2465 59.7642 47.2465 53.3777C47.2465 46.9911 42.0509 41.7952 35.6641 41.7952Z" fill="white"/>
<path d="M37.3643 52.1563H37.0363V49.517H38.5637C39.1982 49.517 39.7812 49.0918 39.9055 48.4696C40.075 47.6213 39.4312 46.8776 38.613 46.8776H37.0363V46.3679C37.0363 45.7321 36.6095 45.1469 35.9855 45.0252C35.1385 44.8603 34.3969 45.4961 34.3969 46.3035V46.8773H34.1427C32.1753 46.8773 30.4425 48.3129 30.2224 50.2679C29.9627 52.5728 31.7889 54.5315 34.0691 54.5315H34.3969V57.1709H32.8695C32.2349 57.1709 31.6519 57.5961 31.5276 58.2182C31.3581 59.0665 32.0019 59.8103 32.8201 59.8103H34.3969V60.32C34.3969 60.9558 34.8237 61.541 35.4476 61.6626C36.2946 61.8276 37.0363 61.1918 37.0363 60.3844V59.8106H37.2907C39.2578 59.8106 40.9906 58.3753 41.2107 56.4205C41.4707 54.1153 39.6445 52.1563 37.3643 52.1563ZM34.0807 51.8924C33.3897 51.8924 32.8346 51.2991 32.898 50.5951C32.9542 49.9722 33.518 49.517 34.1435 49.517H34.3969V51.8924H34.0807ZM37.2902 57.1712H37.0363V54.7957H37.3525C38.0432 54.7957 38.5983 55.3888 38.5352 56.0925C38.4795 56.7156 37.9157 57.1712 37.2902 57.1712Z" fill="white"/>
<path d="M88.2859 58.7542H86.869C85.1484 58.7542 83.7538 57.3596 83.7538 55.6389V51.3119C83.7538 49.5913 85.1484 48.1967 86.869 48.1967H88.2927C90.0134 48.1967 91.408 49.5913 91.408 51.3119V55.644C91.4075 57.359 90.0073 58.7542 88.2859 58.7542ZM86.3929 51.3119V55.6392C86.3929 55.9018 86.6059 56.1148 86.8685 56.1148H88.2925C88.5543 56.1148 88.7684 55.9008 88.7684 55.6389V51.3119C88.7684 51.049 88.5554 50.836 88.2925 50.836H86.8688C86.6059 50.836 86.3929 51.049 86.3929 51.3119Z" fill="white"/>
<path d="M94.5759 57.8692V50.836H94.0404C93.8907 50.836 93.7474 50.7727 93.645 50.6637C92.5797 49.5309 93.3631 48.1967 94.4587 48.1967H96.7043C96.9865 48.1967 97.2153 48.4255 97.2153 48.7076V57.4509C97.2153 58.5465 95.8808 59.3299 94.7483 58.2646C94.6393 58.1622 94.5759 58.0186 94.5759 57.8692V57.8692Z" fill="white"/>
<rect x="57.2104" y="39.0284" width="4.7509" height="7.91817" rx="1" fill="white" stroke="#627BFF" stroke-width="2"/>
<rect x="76.7423" y="39.0284" width="4.7509" height="7.91817" rx="1" fill="white" stroke="#627BFF" stroke-width="2"/>
<rect x="63.5466" y="39.2917" width="4.7509" height="15.3085" rx="1" fill="white" stroke="#627BFF" stroke-width="2"/>
<rect x="70.1444" y="39.2917" width="4.7509" height="15.3085" rx="1" fill="white" stroke="#627BFF" stroke-width="2"/>
</g>
<defs>
<linearGradient id="paint0_linear" x1="143.548" y1="61.7801" x2="-29.9119" y2="58.0177" gradientUnits="userSpaceOnUse">
<stop stop-color="#7188FF" stop-opacity="0"/>
<stop offset="1" stop-color="#A0AAFF"/>
</linearGradient>
<clipPath id="clip0">
<rect width="120" height="120" fill="white"/>
</clipPath>
</defs>
</svg>
