<svg width="120" height="120" viewBox="0 0 120 120" fill="none" xmlns="http://www.w3.org/2000/svg">
<path d="M113.986 74.2455C113.481 71.3444 112.451 68.619 110.965 66.0992C107.072 59.495 105.838 51.7052 107.35 44.1897C110.149 30.2801 104.754 15.3964 92.4121 6.70349C76.2518 -4.6789 53.7632 -1.23029 41.7925 14.4993C36.669 21.2318 34.2193 29.1063 34.229 36.897C34.241 46.7918 29.5271 56.0706 21.6869 62.1072C10.5483 70.6835 4.42254 81.9271 6.35205 93.0011C9.7336 112.407 36.5697 123.94 66.292 118.761C96.0143 113.582 117.368 93.6517 113.986 74.2455Z" fill="url(#paint0_linear)"/>
<path opacity="0.1" d="M82.9697 31.9014C81.9036 31.9014 80.8603 31.9971 79.844 32.171V19.0057C79.844 16.1442 77.5242 13.8244 74.6627 13.8244H29.7115C26.85 13.8244 24.5302 16.1442 24.5302 19.0057V107.089C24.5302 109.951 26.85 112.27 29.7115 112.27H74.6627C77.5242 112.27 79.844 109.951 79.844 107.089V68.4707C80.8606 68.6446 81.9036 68.7402 82.9697 68.7402C93.1424 68.7402 101.389 60.4935 101.389 50.3207C101.389 40.1482 93.1424 31.9014 82.9697 31.9014V31.9014Z" fill="#A053DC"/>
<path d="M82.7619 34.5892H77.7173V18.9051H82.7619C83.6534 18.9051 84.3758 19.6277 84.3758 20.5189V32.9754C84.3758 33.8668 83.6534 34.5892 82.7619 34.5892Z" fill="white"/>
<path d="M20.8729 50.728H26.6559V18.9051H20.8729C19.9815 18.9051 19.9974 19.6277 19.9974 20.5189V49.114C19.9974 50.0054 19.9817 50.728 20.8729 50.728Z" fill="white"/>
<path d="M74.6627 107.348H29.7115C26.85 107.348 24.5302 105.028 24.5302 102.167V14.0833C24.5302 11.2218 26.85 8.90195 29.7115 8.90195H74.6627C77.5242 8.90195 79.844 11.2218 79.844 14.0833V102.167C79.844 105.028 77.5242 107.348 74.6627 107.348V107.348Z" fill="white"/>
<path d="M24.5302 21.1212H79.8428V95.1293H24.5302V21.1212Z" fill="white"/>
<path d="M56.9348 16.1683H47.4371C46.7897 16.1683 46.2651 15.6435 46.2651 14.9964C46.2651 14.3492 46.7897 13.8244 47.4371 13.8244H56.9348C57.5822 13.8244 58.1067 14.3492 58.1067 14.9964C58.1067 15.6435 57.5822 16.1683 56.9348 16.1683Z" fill="#A053DC"/>
<path d="M47.4204 99.6135V102.583C47.4204 103.23 47.945 103.755 48.5924 103.755H55.7806C56.4278 103.755 56.9526 103.23 56.9526 102.583V99.6135C56.9526 98.9664 56.4278 98.4415 55.7806 98.4415H48.5924C47.945 98.4415 47.4204 98.9661 47.4204 99.6135Z" fill="#DAAAFF"/>
<path d="M70.7064 102.27H66.8341C66.1867 102.27 65.6622 101.745 65.6622 101.098C65.6622 100.451 66.1867 99.9261 66.8341 99.9261H70.7064C71.3538 99.9261 71.8783 100.451 71.8783 101.098C71.8783 101.745 71.3538 102.27 70.7064 102.27Z" fill="#A053DC"/>
<path d="M37.5391 102.27H33.6669C33.0195 102.27 32.4949 101.745 32.4949 101.098C32.4949 100.451 33.0195 99.9261 33.6669 99.9261H37.5391C38.1865 99.9261 38.711 100.451 38.711 101.098C38.711 101.745 38.1865 102.27 37.5391 102.27Z" fill="#A053DC"/>
<path d="M47.2032 46.41H32.2614C31.614 46.41 31.0894 45.8854 31.0894 45.238V30.2962C31.0894 29.6488 31.614 29.1242 32.2614 29.1242H47.2032C47.8506 29.1242 48.3752 29.6488 48.3752 30.2962V45.238C48.3752 45.8852 47.8503 46.41 47.2032 46.41ZM33.4334 44.066H46.0312V31.4682H33.4334V44.066Z" fill="#A053DC"/>
<path d="M42.6159 41.8227H36.8486C36.2012 41.8227 35.6766 41.2982 35.6766 40.6508V34.8835C35.6766 34.2361 36.2012 33.7115 36.8486 33.7115H42.6159C43.2633 33.7115 43.7879 34.2361 43.7879 34.8835V40.6508C43.7879 41.2982 43.2633 41.8227 42.6159 41.8227ZM38.0206 39.4788H41.4439V36.0554H38.0206V39.4788Z" fill="#A053DC"/>
<path d="M72.1114 46.41H57.1696C56.5222 46.41 55.9976 45.8854 55.9976 45.238V30.2962C55.9976 29.6488 56.5222 29.1242 57.1696 29.1242H72.1114C72.7588 29.1242 73.2834 29.6488 73.2834 30.2962V45.238C73.2834 45.8852 72.7588 46.41 72.1114 46.41ZM58.3416 44.066H70.9394V31.4682H58.3416V44.066Z" fill="#A053DC"/>
<path d="M67.5242 41.8227H61.7569C61.1095 41.8227 60.5849 41.2982 60.5849 40.6508V34.8835C60.5849 34.2361 61.1095 33.7115 61.7569 33.7115H67.5242C68.1716 33.7115 68.6962 34.2361 68.6962 34.8835V40.6508C68.6962 41.2982 68.1716 41.8227 67.5242 41.8227ZM62.9289 39.4788H66.3522V36.0554H62.9289V39.4788Z" fill="#A053DC"/>
<path d="M47.2032 71.315H32.2614C31.614 71.315 31.0894 70.7905 31.0894 70.1431V55.201C31.0894 54.5536 31.614 54.0291 32.2614 54.0291H47.2032C47.8506 54.0291 48.3752 54.5536 48.3752 55.201V70.1431C48.3752 70.7902 47.8503 71.315 47.2032 71.315ZM33.4334 68.9711H46.0312V56.373H33.4334V68.9711Z" fill="#A053DC"/>
<path d="M42.6159 66.7278H36.8486C36.2012 66.7278 35.6766 66.2032 35.6766 65.5558V59.7883C35.6766 59.1409 36.2012 58.6163 36.8486 58.6163H42.6159C43.2633 58.6163 43.7879 59.1409 43.7879 59.7883V65.5558C43.7879 66.2032 43.2633 66.7278 42.6159 66.7278ZM38.0206 64.3838H41.4439V60.9603H38.0206V64.3838Z" fill="#A053DC"/>
<path d="M57.1696 71.315C56.5222 71.315 55.9976 70.7905 55.9976 70.1431V55.201C55.9976 54.5536 56.5222 54.0291 57.1696 54.0291C57.817 54.0291 58.3416 54.5536 58.3416 55.201V70.1431C58.3416 70.7902 57.817 71.315 57.1696 71.315Z" fill="#A053DC"/>
<path d="M72.1105 71.315C71.4631 71.315 70.9385 70.7905 70.9385 70.1431V55.201C70.9385 54.5536 71.4631 54.0291 72.1105 54.0291C72.7579 54.0291 73.2824 54.5536 73.2824 55.201V70.1431C73.2824 70.7902 72.7579 71.315 72.1105 71.315Z" fill="#A053DC"/>
<path d="M67.5242 66.7279H61.7569C61.1095 66.7279 60.5849 66.2033 60.5849 65.5559V59.7884C60.5849 59.141 61.1095 58.6164 61.7569 58.6164C62.4043 58.6164 62.9289 59.141 62.9289 59.7884V64.3839H66.3522V56.373H61.7569C61.1095 56.373 60.5849 55.8484 60.5849 55.201C60.5849 54.5536 61.1095 54.0291 61.7569 54.0291H67.5242C68.1716 54.0291 68.6962 54.5536 68.6962 55.201V65.5559C68.6962 66.2033 68.1716 66.7279 67.5242 66.7279Z" fill="#A053DC"/>
<path d="M72.1105 51.3919H32.2614C31.614 51.3919 31.0894 50.8673 31.0894 50.2199C31.0894 49.5725 31.614 49.0479 32.2614 49.0479H72.1108C72.7582 49.0479 73.2827 49.5725 73.2827 50.2199C73.2827 50.8673 72.7579 51.3919 72.1105 51.3919Z" fill="#A053DC"/>
<path d="M52.186 71.3156C51.5386 71.3156 51.014 70.7911 51.014 70.1437V30.2945C51.014 29.6471 51.5386 29.1225 52.186 29.1225C52.8334 29.1225 53.3579 29.6471 53.3579 30.2945V70.1439C53.3579 70.7911 52.8334 71.3156 52.186 71.3156Z" fill="#A053DC"/>
<path d="M67.5242 71.0808H61.7569C61.1095 71.0808 60.5849 70.5562 60.5849 69.9088C60.5849 69.2614 61.1095 68.7368 61.7569 68.7368H67.5242C68.1716 68.7368 68.6962 69.2614 68.6962 69.9088C68.6962 70.5562 68.1716 71.0808 67.5242 71.0808Z" fill="#A053DC"/>
<path d="M55.7948 89.2255H32.4724C31.825 89.2255 31.3004 88.7007 31.3004 88.0535C31.3004 87.4064 31.825 86.8816 32.4724 86.8816H55.7948C56.4422 86.8816 56.9667 87.4064 56.9667 88.0535C56.9667 88.7007 56.4422 89.2255 55.7948 89.2255V89.2255Z" fill="#A053DC"/>
<path d="M35.4023 84.4852H32.4724C31.825 84.4852 31.3004 83.9603 31.3004 83.3132C31.3004 82.666 31.825 82.1412 32.4724 82.1412H35.4023C36.0497 82.1412 36.5743 82.666 36.5743 83.3132C36.5743 83.9603 36.0497 84.4852 35.4023 84.4852Z" fill="#A053DC"/>
<path d="M47.2906 84.4852H39.4383C38.7909 84.4852 38.2664 83.9603 38.2664 83.3132C38.2664 82.666 38.7909 82.1412 39.4383 82.1412H47.2906C47.938 82.1412 48.4626 82.666 48.4626 83.3132C48.4626 83.9603 47.938 84.4852 47.2906 84.4852Z" fill="#A053DC"/>
<path d="M35.4023 77.7855H32.4724C31.825 77.7855 31.3004 77.2607 31.3004 76.6135C31.3004 75.9664 31.825 75.4416 32.4724 75.4416H35.4023C36.0497 75.4416 36.5743 75.9664 36.5743 76.6135C36.5743 77.2609 36.0497 77.7855 35.4023 77.7855Z" fill="#A053DC"/>
<path d="M95.9775 58.4259C103.17 51.2337 103.17 39.5729 95.9775 32.3807C88.7853 25.1885 77.1244 25.1885 69.9323 32.3807C62.7401 39.5729 62.7401 51.2337 69.9323 58.4259C77.1244 65.6181 88.7853 65.6181 95.9775 58.4259Z" fill="#DAAAFF"/>
<path d="M82.9691 59.0949C90.5335 59.0949 96.6656 52.9628 96.6656 45.3985C96.6656 37.8341 90.5335 31.702 82.9691 31.702C75.4048 31.702 69.2727 37.8341 69.2727 45.3985C69.2727 52.9628 75.4048 59.0949 82.9691 59.0949Z" fill="white"/>
<path d="M78.1494 44.33C77.8386 44.33 77.5404 44.2065 77.3206 43.9866L74.7408 41.4066C74.2833 40.9491 74.2833 40.207 74.7408 39.7495L77.3206 37.1695C77.5404 36.9496 77.8386 36.8261 78.1494 36.8261C78.4602 36.8261 78.7583 36.9494 78.978 37.1695L81.558 39.7495C82.0157 40.207 82.0157 40.9491 81.558 41.4066L78.978 43.9866C78.7583 44.2065 78.4602 44.33 78.1494 44.33V44.33ZM77.227 40.5781L78.1496 41.5006L79.0722 40.5781L78.1496 39.6555L77.227 40.5781Z" fill="#A053DC"/>
<path d="M87.7903 53.9713C87.4905 53.9713 87.1902 53.8569 86.9617 53.6281L84.3817 51.0483C84.1619 50.8282 84.0383 50.5303 84.0383 50.2195C84.0383 49.9087 84.1616 49.6106 84.3817 49.3909L86.9617 46.8109C87.419 46.3532 88.1616 46.3532 88.6189 46.8109L91.1989 49.3909C91.419 49.6108 91.5423 49.9087 91.5423 50.2195C91.5423 50.5303 91.4187 50.8285 91.1989 51.0483L88.6189 53.6281C88.3904 53.8569 88.0901 53.9713 87.7903 53.9713V53.9713ZM86.8677 50.2198L87.7903 51.1423L88.7129 50.2198L87.7903 49.2972L86.8677 50.2198Z" fill="#A053DC"/>
<path d="M77.3919 52.1472C77.0921 52.1472 76.7918 52.0328 76.5633 51.8038C76.1055 51.3463 76.1055 50.6042 76.5633 50.1467L87.7166 38.9934C88.1739 38.5356 88.9164 38.5356 89.3737 38.9934C89.8315 39.451 89.8315 40.1931 89.3737 40.6506L78.2205 51.8038C77.9917 52.0328 77.6917 52.1472 77.3919 52.1472V52.1472Z" fill="#A053DC"/>
<path d="M85.5474 25.9824V20.5193C85.5474 18.9831 84.2976 17.7335 82.7614 17.7335H81.0151V14.0838C81.0151 10.5805 78.1651 7.73047 74.6621 7.73047H29.7106C26.2073 7.73047 23.3573 10.5805 23.3573 14.0838V17.7335H20.8727C19.9874 17.7335 19.3095 18.1737 19.013 18.9409C18.8248 19.4282 18.8248 19.9598 18.825 20.4739V49.1599C18.8248 49.6739 18.8248 50.2058 19.013 50.6931C19.3095 51.4603 19.9872 51.9002 20.8727 51.9002H23.3573V102.167C23.3573 105.67 26.2073 108.52 29.7106 108.52H74.6618C78.1649 108.52 81.0149 105.67 81.0149 102.167V71.5562C81.0149 70.9088 80.4903 70.3842 79.8429 70.3842C79.1955 70.3842 78.6709 70.9088 78.6709 71.5562V93.9581H25.701V14.0838C25.701 11.8729 27.4998 10.0744 29.7104 10.0744H74.6616C76.8724 10.0744 78.6707 11.8732 78.6707 14.0838V19.9488H32.4992C31.8518 19.9488 31.3272 20.4734 31.3272 21.1208C31.3272 21.7682 31.8518 22.2928 32.4992 22.2928H78.6712V26.2883C69.9298 28.2532 63.3775 36.0729 63.3775 45.3988C63.3775 56.2016 72.1662 64.9903 82.969 64.9903C93.7716 64.9903 102.56 56.2016 102.56 45.3988C102.56 35.4705 95.1349 27.2493 85.5474 25.9824V25.9824ZM21.1732 49.5563C21.169 49.425 21.169 49.2776 21.169 49.1604V20.4732C21.169 20.356 21.169 20.2085 21.1732 20.0775H23.3571V33.7228C22.9131 33.8895 22.5955 34.3147 22.5955 34.817C22.5955 35.3193 22.9131 35.7443 23.3571 35.9112V49.5565H21.1732V49.5563ZM78.6712 96.302V102.167C78.6712 104.378 76.8726 106.176 74.6621 106.176H29.7106C27.4998 106.176 25.7013 104.377 25.7013 102.167V96.302H78.6712ZM81.0151 20.0775H82.7614C83.0051 20.0775 83.2034 20.2758 83.2034 20.5193V25.8134C83.1249 25.8125 83.0476 25.8075 82.969 25.8075C82.3097 25.8075 81.6581 25.8413 81.0151 25.9053V20.0775ZM82.969 62.6461C73.4587 62.6461 65.7215 54.9089 65.7215 45.3986C65.7215 35.8884 73.4587 28.1513 82.969 28.1513C92.4792 28.1513 100.216 35.8884 100.216 45.3986C100.216 54.9089 92.4792 62.6461 82.969 62.6461Z" fill="#A053DC"/>
<path d="M71.5888 89.2262H64.2972C63.6501 89.2262 63.1252 88.7016 63.1252 88.0542V80.7626C63.1252 80.1155 63.6501 79.5907 64.2972 79.5907H71.5888C72.2362 79.5907 72.7608 80.1155 72.7608 80.7626V88.0542C72.7608 88.7014 72.2362 89.2262 71.5888 89.2262Z" fill="#DAAAFF"/>
<path d="M91.9465 78.9579C91.6467 78.9579 91.3464 78.8435 91.1179 78.6145C90.6601 78.157 90.6601 77.4149 91.1179 76.9574L93.4618 74.6134C93.9191 74.1556 94.6617 74.1556 95.119 74.6134C95.5768 75.071 95.5768 75.813 95.119 76.2706L92.775 78.6145C92.5465 78.8435 92.2465 78.9579 91.9465 78.9579V78.9579Z" fill="#DAAAFF"/>
<path d="M16.3456 78.9579C16.0458 78.9579 15.7455 78.8435 15.517 78.6145C15.0592 78.157 15.0592 77.4149 15.517 76.9574L17.8609 74.6134C18.3182 74.1556 19.0608 74.1556 19.5181 74.6134C19.9759 75.071 19.9759 75.813 19.5181 76.2706L17.1742 78.6145C16.9456 78.8435 16.6454 78.9579 16.3456 78.9579V78.9579Z" fill="#DAAAFF"/>
<path d="M16.1587 64.2723C15.8589 64.2723 15.5586 64.1579 15.3301 63.9289L13.8147 62.4138L12.2993 63.9289C11.842 64.3867 11.0995 64.3867 10.6422 63.9289C10.1844 63.4714 10.1844 62.7293 10.6422 62.2717L12.9861 59.9278C13.4434 59.47 14.186 59.47 14.6433 59.9278L16.9872 62.2717C17.445 62.7293 17.445 63.4714 16.9872 63.9289C16.7587 64.1577 16.4587 64.2723 16.1587 64.2723V64.2723Z" fill="#DAAAFF"/>
<path d="M97.1057 21.2491C96.8059 21.2491 96.5056 21.1347 96.2771 20.9057L94.7617 19.3906L93.2464 20.9057C92.7891 21.3635 92.0465 21.3635 91.5892 20.9057C91.1314 20.4482 91.1314 19.7061 91.5892 19.2485L93.9331 16.9046C94.3904 16.4468 95.133 16.4468 95.5903 16.9046L97.9343 19.2485C98.392 19.7061 98.392 20.4482 97.9343 20.9057C97.7057 21.1347 97.4055 21.2491 97.1057 21.2491V21.2491Z" fill="#DAAAFF"/>
<path d="M90.1347 90.4269C89.8349 90.4269 89.5346 90.3125 89.3061 90.0835L87.7907 88.5683L86.2754 90.0835C85.818 90.5413 85.0755 90.5413 84.6182 90.0835C84.1604 89.6259 84.1604 88.8838 84.6182 88.4263L86.9621 86.0823C87.4194 85.6246 88.162 85.6246 88.6193 86.0823L90.9633 88.4263C91.421 88.8838 91.421 89.6259 90.9633 90.0835C90.7347 90.3123 90.4345 90.4269 90.1347 90.4269Z" fill="#DAAAFF"/>
<defs>
<linearGradient id="paint0_linear" x1="1" y1="114" x2="119.5" y2="5.00001" gradientUnits="userSpaceOnUse">
<stop stop-color="#DAAAFF" stop-opacity="0.73"/>
<stop offset="1" stop-color="#EDD4FF" stop-opacity="0.21"/>
</linearGradient>
</defs>
</svg>
