<svg width="466" height="337" viewBox="0 0 466 337" fill="none" xmlns="http://www.w3.org/2000/svg">
<g filter="url(#filter0_f)">
<path fill-rule="evenodd" clip-rule="evenodd" d="M235.35 286.789C304.123 286.789 359.874 256.551 359.874 219.25C359.874 181.949 304.123 151.711 235.35 151.711C166.577 151.711 110.826 181.949 110.826 219.25C110.826 256.551 166.577 286.789 235.35 286.789ZM235.35 259.323C276.296 259.323 309.489 241.382 309.489 219.25C309.489 197.118 276.296 179.177 235.35 179.177C194.405 179.177 161.212 197.118 161.212 219.25C161.212 241.382 194.405 259.323 235.35 259.323Z" fill="#06052C" fill-opacity="0.5"/>
</g>
<path d="M169.126 183.514V95.3262L116.566 76.5273V164.697L169.126 183.514Z" fill="url(#paint0_linear)"/>
<path d="M287.286 85.3984C254.807 72.7463 208.406 74.0545 178.796 89.3051C175.145 91.1868 171.935 93.2118 169.106 95.3265V140.666C156.327 144.125 144.311 148.623 133.578 154.16C127.179 157.458 121.542 161.006 116.566 164.698L169.106 183.497C171.935 181.382 175.145 179.357 178.796 177.475C208.386 162.207 254.807 160.916 287.286 173.568L326.084 147.35C314.068 142.637 300.968 139.035 287.286 136.49V85.3984Z" fill="url(#paint1_linear)"/>
<path d="M178.818 89.3041C208.408 74.0357 254.829 72.7454 287.308 85.3974L326.106 59.1794C268.551 36.6171 186.12 38.8752 133.58 65.9713C127.181 69.2688 121.544 72.8171 116.568 76.5087L169.108 95.3076C171.937 93.2109 175.167 91.1858 178.818 89.3041Z" fill="#5FE2FF"/>
<path d="M287.285 85.3978L326.103 59.1797V147.35L287.285 173.568V85.3978Z" fill="url(#paint2_linear)"/>
<path d="M341.273 183.481C323.138 192.835 301.452 199.215 278.442 202.656V244.859C272.664 246.562 266.566 247.888 260.307 248.802L278.442 280.45C301.452 277.009 323.138 270.629 341.273 261.275C369.94 246.49 384.284 227.1 384.284 207.71V129.934C384.284 149.306 369.94 168.696 341.273 183.481Z" fill="url(#paint3_linear)"/>
<path d="M296.034 160.164C328.412 143.462 328.412 116.402 296.034 99.6997C293.265 98.266 290.336 96.9757 287.287 95.793V164.071C290.336 162.888 293.265 161.58 296.034 160.164Z" fill="url(#paint4_linear)"/>
<path d="M260.307 248.8L278.442 280.449V202.655L260.307 171.024V248.8Z" fill="url(#paint5_linear)"/>
<path d="M296.035 99.699C328.414 116.401 328.414 143.461 296.035 160.164C285.724 165.486 273.386 169.088 260.307 171.024L278.442 202.672C301.452 199.231 323.138 192.851 341.273 183.496C398.628 153.909 398.628 105.953 341.273 76.3841C336.458 73.8931 331.383 71.653 326.107 69.5742L287.289 95.7923C290.338 96.9751 293.267 98.2654 296.035 99.699Z" fill="#C685F9"/>
<path d="M169.124 183.514L145.151 174.93L121.078 184.535C101.418 171.399 91.2873 155.719 90.6453 139.931V206.255C90.6052 207.205 90.6052 208.137 90.6453 209.069V209.427C91.3274 225.162 101.478 240.807 121.078 253.907L171.652 233.71C149.725 219.015 148.883 198.657 169.124 183.514Z" fill="url(#paint6_linear)"/>
<path d="M121.081 184.537L171.655 164.34C149.748 149.627 148.886 129.269 169.127 114.126L116.567 95.3271C80.5176 122.208 82.0222 158.426 121.081 184.537Z" fill="#7188FF"/>
<path d="M169.125 162.547V114.125C149.706 128.659 149.706 147.995 169.125 162.547Z" fill="url(#paint7_linear)"/>
<path d="M121.082 184.536L171.656 164.339V183.747L121.082 203.944V184.536Z" fill="url(#paint8_linear)"/>
<path d="M133.578 211.31C129.044 208.962 124.912 206.507 121.08 203.944V253.925C124.892 256.47 129.044 258.943 133.578 261.291C172.797 281.523 228.688 287.903 278.439 280.466V230.485C228.688 237.922 172.797 231.524 133.578 211.31Z" fill="url(#paint9_linear)"/>
<path d="M178.818 187.977C176.21 186.633 173.843 185.218 171.656 183.748L121.082 203.945C124.894 206.49 129.046 208.963 133.58 211.31C172.799 231.543 228.69 237.923 278.441 230.485L260.306 198.837C232.3 202.977 200.885 199.357 178.818 187.977Z" fill="#E5E6EE"/>
<g filter="url(#filter1_d)">
<rect x="180" width="82" height="24" rx="12" fill="white"/>
<path d="M202.435 17.128C201.358 17.128 200.419 16.8987 199.619 16.44C198.819 15.9707 198.206 15.304 197.779 14.44C197.352 13.5653 197.139 12.536 197.139 11.352C197.139 10.1787 197.352 9.16 197.779 8.296C198.206 7.42133 198.819 6.75467 199.619 6.296C200.419 5.82667 201.358 5.592 202.435 5.592C203.139 5.592 203.806 5.704 204.435 5.928C205.064 6.14133 205.614 6.456 206.083 6.872C206.286 7.032 206.387 7.24533 206.387 7.512C206.387 7.704 206.334 7.86933 206.227 8.008C206.12 8.136 205.992 8.2 205.843 8.2C205.662 8.2 205.486 8.13067 205.315 7.992C204.803 7.608 204.334 7.34133 203.907 7.192C203.491 7.032 203.016 6.952 202.483 6.952C201.31 6.952 200.408 7.33067 199.779 8.088C199.15 8.84533 198.835 9.93333 198.835 11.352C198.835 12.7813 199.15 13.8747 199.779 14.632C200.408 15.3893 201.31 15.768 202.483 15.768C202.995 15.768 203.459 15.688 203.875 15.528C204.302 15.368 204.782 15.1013 205.315 14.728C205.528 14.5893 205.704 14.52 205.843 14.52C205.992 14.52 206.12 14.5893 206.227 14.728C206.334 14.856 206.387 15.016 206.387 15.208C206.387 15.4747 206.286 15.688 206.083 15.848C205.614 16.264 205.064 16.584 204.435 16.808C203.806 17.0213 203.139 17.128 202.435 17.128ZM212.255 9.032C212.767 9 213.023 9.21867 213.023 9.688C213.023 9.92267 212.964 10.0987 212.847 10.216C212.73 10.3333 212.527 10.4027 212.239 10.424L211.759 10.472C211.087 10.536 210.586 10.7707 210.255 11.176C209.935 11.5813 209.775 12.072 209.775 12.648V16.312C209.775 16.568 209.7 16.76 209.551 16.888C209.402 17.016 209.21 17.08 208.975 17.08C208.74 17.08 208.543 17.016 208.383 16.888C208.234 16.76 208.159 16.568 208.159 16.312V9.8C208.159 9.55467 208.234 9.368 208.383 9.24C208.543 9.10133 208.74 9.032 208.975 9.032C209.188 9.032 209.364 9.10133 209.503 9.24C209.652 9.368 209.727 9.54933 209.727 9.784V10.552C209.94 10.0827 210.25 9.72533 210.655 9.48C211.06 9.23467 211.519 9.09067 212.031 9.048L212.255 9.032ZM220.055 9.512C220.119 9.352 220.209 9.23467 220.327 9.16C220.455 9.08533 220.588 9.048 220.727 9.048C220.929 9.048 221.105 9.11733 221.255 9.256C221.415 9.39467 221.495 9.56 221.495 9.752C221.495 9.85867 221.473 9.96 221.431 10.056L216.983 19.496C216.919 19.6453 216.823 19.7573 216.695 19.832C216.577 19.9173 216.449 19.96 216.311 19.96C216.119 19.96 215.943 19.896 215.783 19.768C215.633 19.64 215.559 19.48 215.559 19.288C215.559 19.2027 215.585 19.096 215.639 18.968L216.743 16.616L213.655 10.056C213.612 9.97067 213.591 9.87467 213.591 9.768C213.591 9.56533 213.676 9.39467 213.847 9.256C214.017 9.11733 214.209 9.048 214.423 9.048C214.743 9.048 214.972 9.19733 215.111 9.496L217.591 15L220.055 9.512ZM227.007 9C227.679 9 228.277 9.17067 228.799 9.512C229.333 9.85333 229.743 10.3333 230.031 10.952C230.33 11.5707 230.479 12.2853 230.479 13.096C230.479 13.896 230.335 14.6 230.047 15.208C229.759 15.816 229.349 16.2853 228.815 16.616C228.293 16.9467 227.69 17.112 227.007 17.112C226.421 17.112 225.903 16.9893 225.455 16.744C225.007 16.488 224.666 16.1253 224.431 15.656V19.224C224.431 19.448 224.357 19.624 224.207 19.752C224.069 19.8907 223.882 19.96 223.647 19.96C223.402 19.96 223.199 19.8907 223.039 19.752C222.89 19.6133 222.815 19.4267 222.815 19.192V9.816C222.815 9.58133 222.89 9.39467 223.039 9.256C223.189 9.10667 223.386 9.032 223.631 9.032C223.866 9.032 224.058 9.10667 224.207 9.256C224.357 9.39467 224.431 9.58133 224.431 9.816V10.472C224.666 10.0027 225.007 9.64 225.455 9.384C225.903 9.128 226.421 9 227.007 9ZM226.623 15.832C227.327 15.832 227.871 15.5973 228.255 15.128C228.639 14.648 228.831 13.9707 228.831 13.096C228.831 12.2107 228.634 11.5227 228.239 11.032C227.855 10.5413 227.317 10.296 226.623 10.296C225.919 10.296 225.375 10.536 224.991 11.016C224.618 11.496 224.431 12.1787 224.431 13.064C224.431 13.9493 224.618 14.632 224.991 15.112C225.375 15.592 225.919 15.832 226.623 15.832ZM236.061 15.848C236.296 15.8693 236.461 15.9333 236.557 16.04C236.664 16.136 236.717 16.2747 236.717 16.456C236.717 16.6693 236.632 16.8347 236.461 16.952C236.301 17.0587 236.061 17.1013 235.741 17.08L235.309 17.048C234.445 16.984 233.8 16.7227 233.373 16.264C232.947 15.7947 232.733 15.1067 232.733 14.2V10.44H231.773C231.304 10.44 231.069 10.232 231.069 9.816C231.069 9.624 231.128 9.47467 231.245 9.368C231.373 9.25067 231.549 9.192 231.773 9.192H232.733V7.544C232.733 7.29867 232.803 7.10667 232.941 6.968C233.091 6.82933 233.288 6.76 233.533 6.76C233.779 6.76 233.976 6.82933 234.125 6.968C234.275 7.10667 234.349 7.29867 234.349 7.544V9.192H235.933C236.157 9.192 236.328 9.25067 236.445 9.368C236.573 9.47467 236.637 9.624 236.637 9.816C236.637 10.0187 236.573 10.1733 236.445 10.28C236.328 10.3867 236.157 10.44 235.933 10.44H234.349V14.312C234.349 14.8133 234.451 15.1813 234.653 15.416C234.867 15.6507 235.187 15.784 235.613 15.816L236.061 15.848ZM241.27 17.112C240.502 17.112 239.824 16.9467 239.238 16.616C238.662 16.2853 238.214 15.816 237.894 15.208C237.584 14.5893 237.43 13.8747 237.43 13.064C237.43 12.2427 237.584 11.528 237.894 10.92C238.214 10.3013 238.662 9.82667 239.238 9.496C239.824 9.16533 240.502 9 241.27 9C242.038 9 242.71 9.16533 243.286 9.496C243.872 9.82667 244.32 10.3013 244.63 10.92C244.95 11.528 245.11 12.2427 245.11 13.064C245.11 13.8747 244.95 14.5893 244.63 15.208C244.32 15.816 243.872 16.2853 243.286 16.616C242.71 16.9467 242.038 17.112 241.27 17.112ZM241.27 15.832C241.984 15.832 242.528 15.5973 242.902 15.128C243.286 14.6587 243.478 13.9707 243.478 13.064C243.478 12.168 243.286 11.4853 242.902 11.016C242.518 10.536 241.974 10.296 241.27 10.296C240.566 10.296 240.022 10.536 239.638 11.016C239.254 11.4853 239.062 12.168 239.062 13.064C239.062 13.9707 239.248 14.6587 239.622 15.128C240.006 15.5973 240.555 15.832 241.27 15.832Z" fill="#31385C"/>
</g>
<path d="M222 28L219.113 33L224.887 33L222 28ZM222 61.8868L224.887 59L222 56.1132L219.113 59L222 61.8868ZM221.5 32.5L221.5 59L222.5 59L222.5 32.5L221.5 32.5Z" fill="#31385C"/>
<g filter="url(#filter2_d)">
<rect x="378" y="81" width="86" height="24" rx="12" fill="white"/>
<path d="M399.509 98.128C398.698 98.128 397.925 98.016 397.189 97.792C396.463 97.568 395.882 97.2587 395.445 96.864C395.242 96.6933 395.141 96.4747 395.141 96.208C395.141 96.016 395.194 95.856 395.301 95.728C395.407 95.5893 395.535 95.52 395.685 95.52C395.834 95.52 396.015 95.5893 396.229 95.728C397.178 96.432 398.261 96.784 399.477 96.784C400.33 96.784 400.986 96.624 401.445 96.304C401.903 95.984 402.133 95.5253 402.133 94.928C402.133 94.4587 401.919 94.1067 401.493 93.872C401.066 93.6373 400.383 93.4133 399.445 93.2C398.549 93.008 397.813 92.7893 397.237 92.544C396.661 92.2987 396.207 91.968 395.877 91.552C395.557 91.1253 395.397 90.5867 395.397 89.936C395.397 89.2853 395.573 88.7093 395.925 88.208C396.287 87.696 396.789 87.3013 397.429 87.024C398.069 86.736 398.799 86.592 399.621 86.592C400.378 86.592 401.077 86.6987 401.717 86.912C402.357 87.1253 402.901 87.44 403.349 87.856C403.562 88.0373 403.669 88.256 403.669 88.512C403.669 88.6933 403.61 88.8533 403.493 88.992C403.386 89.1307 403.258 89.2 403.109 89.2C402.97 89.2 402.794 89.1307 402.581 88.992C402.09 88.6187 401.626 88.352 401.189 88.192C400.762 88.0213 400.245 87.936 399.637 87.936C398.815 87.936 398.175 88.1067 397.717 88.448C397.258 88.7787 397.029 89.2427 397.029 89.84C397.029 90.352 397.231 90.7413 397.637 91.008C398.042 91.264 398.693 91.4987 399.589 91.712C400.527 91.9253 401.285 92.1493 401.861 92.384C402.447 92.608 402.911 92.9227 403.253 93.328C403.605 93.7227 403.781 94.2347 403.781 94.864C403.781 95.504 403.599 96.0747 403.237 96.576C402.885 97.0667 402.383 97.4507 401.733 97.728C401.093 97.9947 400.351 98.128 399.509 98.128ZM406.306 94.384C406.061 94.384 405.874 94.3307 405.746 94.224C405.618 94.1067 405.554 93.9467 405.554 93.744C405.554 93.5413 405.618 93.3813 405.746 93.264C405.874 93.1467 406.061 93.088 406.306 93.088H409.714C409.959 93.088 410.146 93.1467 410.274 93.264C410.402 93.3813 410.466 93.5413 410.466 93.744C410.466 93.9467 410.402 94.1067 410.274 94.224C410.146 94.3307 409.959 94.384 409.714 94.384H406.306ZM417.583 98.128C416.506 98.128 415.567 97.8987 414.767 97.44C413.967 96.9707 413.354 96.304 412.927 95.44C412.501 94.5653 412.287 93.536 412.287 92.352C412.287 91.1787 412.501 90.16 412.927 89.296C413.354 88.4213 413.967 87.7547 414.767 87.296C415.567 86.8267 416.506 86.592 417.583 86.592C418.287 86.592 418.954 86.704 419.583 86.928C420.213 87.1413 420.762 87.456 421.231 87.872C421.434 88.032 421.535 88.2453 421.535 88.512C421.535 88.704 421.482 88.8693 421.375 89.008C421.269 89.136 421.141 89.2 420.991 89.2C420.81 89.2 420.634 89.1307 420.463 88.992C419.951 88.608 419.482 88.3413 419.055 88.192C418.639 88.032 418.165 87.952 417.631 87.952C416.458 87.952 415.557 88.3307 414.927 89.088C414.298 89.8453 413.983 90.9333 413.983 92.352C413.983 93.7813 414.298 94.8747 414.927 95.632C415.557 96.3893 416.458 96.768 417.631 96.768C418.143 96.768 418.607 96.688 419.023 96.528C419.45 96.368 419.93 96.1013 420.463 95.728C420.677 95.5893 420.853 95.52 420.991 95.52C421.141 95.52 421.269 95.5893 421.375 95.728C421.482 95.856 421.535 96.016 421.535 96.208C421.535 96.4747 421.434 96.688 421.231 96.848C420.762 97.264 420.213 97.584 419.583 97.808C418.954 98.0213 418.287 98.128 417.583 98.128ZM426.431 90C427.466 90 428.234 90.2613 428.735 90.784C429.247 91.3067 429.503 92.1013 429.503 93.168V97.312C429.503 97.5573 429.434 97.7493 429.295 97.888C429.157 98.016 428.965 98.08 428.719 98.08C428.485 98.08 428.298 98.0107 428.159 97.872C428.021 97.7333 427.951 97.5467 427.951 97.312V96.72C427.749 97.168 427.445 97.5147 427.039 97.76C426.645 97.9947 426.181 98.112 425.647 98.112C425.135 98.112 424.666 98.0107 424.239 97.808C423.823 97.5947 423.493 97.3067 423.247 96.944C423.002 96.5813 422.879 96.1707 422.879 95.712C422.869 95.136 423.013 94.688 423.311 94.368C423.61 94.0373 424.095 93.8027 424.767 93.664C425.439 93.5147 426.373 93.44 427.567 93.44H427.935V92.976C427.935 92.3787 427.813 91.9467 427.567 91.68C427.322 91.4133 426.927 91.28 426.383 91.28C426.01 91.28 425.658 91.328 425.327 91.424C424.997 91.52 424.634 91.6587 424.239 91.84C423.951 92 423.749 92.08 423.631 92.08C423.471 92.08 423.338 92.0213 423.231 91.904C423.135 91.7867 423.087 91.6373 423.087 91.456C423.087 91.296 423.13 91.1573 423.215 91.04C423.311 90.912 423.461 90.7893 423.663 90.672C424.037 90.4693 424.474 90.3093 424.975 90.192C425.477 90.064 425.962 90 426.431 90ZM425.935 96.912C426.522 96.912 427.002 96.7147 427.375 96.32C427.749 95.9147 427.935 95.3973 427.935 94.768V94.352H427.647C426.815 94.352 426.175 94.3893 425.727 94.464C425.279 94.5387 424.959 94.6667 424.767 94.848C424.575 95.0187 424.479 95.2693 424.479 95.6C424.479 95.984 424.618 96.2987 424.895 96.544C425.173 96.7893 425.519 96.912 425.935 96.912ZM434.434 98.112C433.346 98.112 432.455 97.888 431.762 97.44C431.57 97.3227 431.431 97.2 431.346 97.072C431.271 96.944 431.234 96.8 431.234 96.64C431.234 96.4693 431.282 96.3253 431.378 96.208C431.474 96.0907 431.596 96.032 431.746 96.032C431.884 96.032 432.103 96.1173 432.402 96.288C432.722 96.4587 433.031 96.5973 433.33 96.704C433.639 96.8107 434.023 96.864 434.482 96.864C434.994 96.864 435.394 96.7733 435.682 96.592C435.97 96.4107 436.114 96.1547 436.114 95.824C436.114 95.6107 436.055 95.44 435.938 95.312C435.831 95.184 435.639 95.072 435.362 94.976C435.084 94.8693 434.674 94.7573 434.13 94.64C433.191 94.4373 432.514 94.1653 432.098 93.824C431.692 93.472 431.49 92.9973 431.49 92.4C431.49 91.9413 431.623 91.5307 431.89 91.168C432.156 90.7947 432.524 90.5067 432.994 90.304C433.463 90.1013 433.996 90 434.594 90C435.02 90 435.436 90.0587 435.842 90.176C436.247 90.2827 436.604 90.4427 436.914 90.656C437.266 90.8907 437.442 91.1627 437.442 91.472C437.442 91.6427 437.388 91.7867 437.282 91.904C437.186 92.0213 437.068 92.08 436.93 92.08C436.834 92.08 436.738 92.0587 436.642 92.016C436.546 91.9733 436.418 91.904 436.258 91.808C435.97 91.6373 435.698 91.504 435.442 91.408C435.196 91.312 434.887 91.264 434.514 91.264C434.066 91.264 433.703 91.36 433.426 91.552C433.159 91.744 433.026 92.0053 433.026 92.336C433.026 92.6347 433.148 92.8693 433.394 93.04C433.65 93.2 434.124 93.3547 434.818 93.504C435.532 93.6533 436.092 93.824 436.498 94.016C436.903 94.208 437.191 94.448 437.362 94.736C437.543 95.0133 437.634 95.3707 437.634 95.808C437.634 96.5013 437.34 97.0613 436.754 97.488C436.178 97.904 435.404 98.112 434.434 98.112ZM443.657 90C445.513 90 446.441 91.0507 446.441 93.152V97.312C446.441 97.5467 446.366 97.7333 446.217 97.872C446.067 98.0107 445.87 98.08 445.625 98.08C445.379 98.08 445.182 98.0107 445.033 97.872C444.894 97.7333 444.825 97.5467 444.825 97.312V93.168C444.825 92.528 444.691 92.0587 444.425 91.76C444.169 91.4613 443.763 91.312 443.209 91.312C442.558 91.312 442.035 91.5147 441.641 91.92C441.246 92.3253 441.049 92.8693 441.049 93.552V97.312C441.049 97.5467 440.974 97.7333 440.825 97.872C440.686 98.0107 440.494 98.08 440.249 98.08C440.003 98.08 439.806 98.0107 439.657 97.872C439.507 97.7333 439.433 97.5467 439.433 97.312V87.408C439.433 87.1733 439.507 86.9867 439.657 86.848C439.817 86.7093 440.019 86.64 440.265 86.64C440.499 86.64 440.686 86.7093 440.825 86.848C440.974 86.976 441.049 87.152 441.049 87.376V91.376C441.315 90.928 441.673 90.5867 442.121 90.352C442.569 90.1173 443.081 90 443.657 90Z" fill="#31385C"/>
</g>
<path d="M375 93L370 95.8868V90.1132L375 93ZM346 93H345.5V92.5H346V93ZM346 138.887L343.113 136L346 133.113L348.887 136L346 138.887ZM370.5 93.5H346V92.5H370.5V93.5ZM346.5 93V136H345.5V93H346.5Z" fill="#31385C"/>
<g filter="url(#filter3_d)">
<rect x="6" y="99" width="105" height="24" rx="12" fill="white"/>
<path d="M32.0186 110.016C32.2212 110.016 32.3812 110.075 32.4986 110.192C32.6266 110.309 32.6906 110.469 32.6906 110.672V114.416C32.6906 114.779 32.6372 115.04 32.5306 115.2C32.4346 115.36 32.2372 115.488 31.9386 115.584C31.5119 115.755 31.0052 115.888 30.4186 115.984C29.8319 116.08 29.2506 116.128 28.6746 116.128C27.5332 116.128 26.5466 115.899 25.7146 115.44C24.8826 114.981 24.2479 114.32 23.8106 113.456C23.3732 112.592 23.1546 111.557 23.1546 110.352C23.1546 109.168 23.3732 108.144 23.8106 107.28C24.2479 106.416 24.8719 105.755 25.6826 105.296C26.5039 104.827 27.4639 104.592 28.5626 104.592C29.3092 104.592 29.9972 104.704 30.6266 104.928C31.2666 105.141 31.8106 105.456 32.2586 105.872C32.4719 106.043 32.5786 106.256 32.5786 106.512C32.5786 106.704 32.5252 106.869 32.4186 107.008C32.3119 107.136 32.1839 107.2 32.0346 107.2C31.9386 107.2 31.8532 107.184 31.7786 107.152C31.7039 107.12 31.6079 107.067 31.4906 106.992C30.9679 106.608 30.4932 106.341 30.0666 106.192C29.6399 106.032 29.1492 105.952 28.5946 105.952C27.3786 105.952 26.4506 106.331 25.8106 107.088C25.1706 107.835 24.8506 108.923 24.8506 110.352C24.8506 111.813 25.1759 112.923 25.8266 113.68C26.4879 114.427 27.4532 114.8 28.7226 114.8C29.5759 114.8 30.3972 114.672 31.1866 114.416V111.264H29.0906C28.8772 111.264 28.7066 111.211 28.5786 111.104C28.4612 110.987 28.4026 110.832 28.4026 110.64C28.4026 110.448 28.4612 110.299 28.5786 110.192C28.7066 110.075 28.8772 110.016 29.0906 110.016H32.0186ZM35.8032 116.08C35.5685 116.08 35.3712 116.016 35.2112 115.888C35.0619 115.76 34.9872 115.568 34.9872 115.312V108.816C34.9872 108.56 35.0619 108.368 35.2112 108.24C35.3712 108.101 35.5685 108.032 35.8032 108.032C36.0379 108.032 36.2299 108.101 36.3792 108.24C36.5285 108.368 36.6032 108.56 36.6032 108.816V115.312C36.6032 115.568 36.5285 115.76 36.3792 115.888C36.2299 116.016 36.0379 116.08 35.8032 116.08ZM35.8032 106.464C35.4939 106.464 35.2485 106.379 35.0672 106.208C34.8859 106.037 34.7952 105.813 34.7952 105.536C34.7952 105.259 34.8859 105.04 35.0672 104.88C35.2485 104.709 35.4939 104.624 35.8032 104.624C36.1019 104.624 36.3419 104.709 36.5232 104.88C36.7152 105.04 36.8112 105.259 36.8112 105.536C36.8112 105.813 36.7205 106.037 36.5392 106.208C36.3579 106.379 36.1125 106.464 35.8032 106.464ZM42.5422 105.952C42.0089 105.995 41.6142 106.165 41.3582 106.464C41.1022 106.752 40.9742 107.179 40.9742 107.744V108.192H42.5582C42.7822 108.192 42.9529 108.251 43.0702 108.368C43.1982 108.475 43.2622 108.624 43.2622 108.816C43.2622 109.008 43.1982 109.163 43.0702 109.28C42.9529 109.387 42.7822 109.44 42.5582 109.44H40.9742V115.296C40.9742 115.552 40.8942 115.749 40.7342 115.888C40.5849 116.016 40.3929 116.08 40.1582 116.08C39.9235 116.08 39.7315 116.016 39.5822 115.888C39.4329 115.749 39.3582 115.552 39.3582 115.296V109.44H38.3982C38.1742 109.44 37.9982 109.387 37.8702 109.28C37.7529 109.163 37.6942 109.008 37.6942 108.816C37.6942 108.624 37.7529 108.475 37.8702 108.368C37.9982 108.251 38.1742 108.192 38.3982 108.192H39.3582V107.984C39.3582 107.003 39.6089 106.235 40.1102 105.68C40.6115 105.115 41.3209 104.8 42.2382 104.736L42.6542 104.704C42.9955 104.683 43.2409 104.72 43.3902 104.816C43.5502 104.912 43.6302 105.067 43.6302 105.28C43.6302 105.653 43.4062 105.867 42.9582 105.92L42.5422 105.952ZM47.7487 114.848C47.9834 114.869 48.1487 114.933 48.2447 115.04C48.3514 115.136 48.4047 115.275 48.4047 115.456C48.4047 115.669 48.3194 115.835 48.1487 115.952C47.9887 116.059 47.7487 116.101 47.4287 116.08L46.9967 116.048C46.1327 115.984 45.4874 115.723 45.0607 115.264C44.634 114.795 44.4207 114.107 44.4207 113.2V109.44H43.4607C42.9914 109.44 42.7567 109.232 42.7567 108.816C42.7567 108.624 42.8154 108.475 42.9327 108.368C43.0607 108.251 43.2367 108.192 43.4607 108.192H44.4207V106.544C44.4207 106.299 44.49 106.107 44.6287 105.968C44.778 105.829 44.9754 105.76 45.2207 105.76C45.466 105.76 45.6634 105.829 45.8127 105.968C45.962 106.107 46.0367 106.299 46.0367 106.544V108.192H47.6207C47.8447 108.192 48.0154 108.251 48.1327 108.368C48.2607 108.475 48.3247 108.624 48.3247 108.816C48.3247 109.019 48.2607 109.173 48.1327 109.28C48.0154 109.387 47.8447 109.44 47.6207 109.44H46.0367V113.312C46.0367 113.813 46.138 114.181 46.3407 114.416C46.554 114.651 46.874 114.784 47.3007 114.816L47.7487 114.848ZM58.8881 116.128C57.8107 116.128 56.8721 115.899 56.0721 115.44C55.2721 114.971 54.6587 114.304 54.2321 113.44C53.8054 112.565 53.5921 111.536 53.5921 110.352C53.5921 109.179 53.8054 108.16 54.2321 107.296C54.6587 106.421 55.2721 105.755 56.0721 105.296C56.8721 104.827 57.8107 104.592 58.8881 104.592C59.5921 104.592 60.2587 104.704 60.8881 104.928C61.5174 105.141 62.0667 105.456 62.5361 105.872C62.7387 106.032 62.8401 106.245 62.8401 106.512C62.8401 106.704 62.7867 106.869 62.6801 107.008C62.5734 107.136 62.4454 107.2 62.2961 107.2C62.1147 107.2 61.9387 107.131 61.7681 106.992C61.2561 106.608 60.7867 106.341 60.3601 106.192C59.9441 106.032 59.4694 105.952 58.9361 105.952C57.7627 105.952 56.8614 106.331 56.2321 107.088C55.6027 107.845 55.2881 108.933 55.2881 110.352C55.2881 111.781 55.6027 112.875 56.2321 113.632C56.8614 114.389 57.7627 114.768 58.9361 114.768C59.4481 114.768 59.9121 114.688 60.3281 114.528C60.7547 114.368 61.2347 114.101 61.7681 113.728C61.9814 113.589 62.1574 113.52 62.2961 113.52C62.4454 113.52 62.5734 113.589 62.6801 113.728C62.7867 113.856 62.8401 114.016 62.8401 114.208C62.8401 114.475 62.7387 114.688 62.5361 114.848C62.0667 115.264 61.5174 115.584 60.8881 115.808C60.2587 116.021 59.5921 116.128 58.8881 116.128ZM67.7359 108C68.7706 108 69.5386 108.261 70.0399 108.784C70.5519 109.307 70.8079 110.101 70.8079 111.168V115.312C70.8079 115.557 70.7386 115.749 70.5999 115.888C70.4613 116.016 70.2693 116.08 70.0239 116.08C69.7893 116.08 69.6026 116.011 69.4639 115.872C69.3253 115.733 69.2559 115.547 69.2559 115.312V114.72C69.0533 115.168 68.7493 115.515 68.3439 115.76C67.9493 115.995 67.4853 116.112 66.9519 116.112C66.4399 116.112 65.9706 116.011 65.5439 115.808C65.1279 115.595 64.7973 115.307 64.5519 114.944C64.3066 114.581 64.1839 114.171 64.1839 113.712C64.1733 113.136 64.3173 112.688 64.6159 112.368C64.9146 112.037 65.3999 111.803 66.0719 111.664C66.7439 111.515 67.6773 111.44 68.8719 111.44H69.2399V110.976C69.2399 110.379 69.1173 109.947 68.8719 109.68C68.6266 109.413 68.2319 109.28 67.6879 109.28C67.3146 109.28 66.9626 109.328 66.6319 109.424C66.3013 109.52 65.9386 109.659 65.5439 109.84C65.2559 110 65.0533 110.08 64.9359 110.08C64.7759 110.08 64.6426 110.021 64.5359 109.904C64.4399 109.787 64.3919 109.637 64.3919 109.456C64.3919 109.296 64.4346 109.157 64.5199 109.04C64.6159 108.912 64.7653 108.789 64.9679 108.672C65.3413 108.469 65.7786 108.309 66.2799 108.192C66.7813 108.064 67.2666 108 67.7359 108ZM67.2399 114.912C67.8266 114.912 68.3066 114.715 68.6799 114.32C69.0533 113.915 69.2399 113.397 69.2399 112.768V112.352H68.9519C68.1199 112.352 67.4799 112.389 67.0319 112.464C66.5839 112.539 66.2639 112.667 66.0719 112.848C65.8799 113.019 65.7839 113.269 65.7839 113.6C65.7839 113.984 65.9226 114.299 66.1999 114.544C66.4773 114.789 66.8239 114.912 67.2399 114.912ZM77.1144 108.032C77.6264 108 77.8824 108.219 77.8824 108.688C77.8824 108.923 77.8238 109.099 77.7064 109.216C77.5891 109.333 77.3864 109.403 77.0984 109.424L76.6184 109.472C75.9464 109.536 75.4451 109.771 75.1144 110.176C74.7944 110.581 74.6344 111.072 74.6344 111.648V115.312C74.6344 115.568 74.5598 115.76 74.4104 115.888C74.2611 116.016 74.0691 116.08 73.8344 116.08C73.5998 116.08 73.4024 116.016 73.2424 115.888C73.0931 115.76 73.0184 115.568 73.0184 115.312V108.8C73.0184 108.555 73.0931 108.368 73.2424 108.24C73.4024 108.101 73.5998 108.032 73.8344 108.032C74.0478 108.032 74.2238 108.101 74.3624 108.24C74.5118 108.368 74.5864 108.549 74.5864 108.784V109.552C74.7998 109.083 75.1091 108.725 75.5144 108.48C75.9198 108.235 76.3784 108.091 76.8904 108.048L77.1144 108.032ZM85.1056 104.64C85.3509 104.64 85.5482 104.709 85.6976 104.848C85.8469 104.987 85.9216 105.173 85.9216 105.408V115.296C85.9216 115.541 85.8469 115.733 85.6976 115.872C85.5589 116.011 85.3669 116.08 85.1216 116.08C84.8762 116.08 84.6789 116.011 84.5296 115.872C84.3909 115.733 84.3216 115.541 84.3216 115.296V114.656C84.0869 115.125 83.7456 115.488 83.2976 115.744C82.8496 115.989 82.3322 116.112 81.7456 116.112C81.0736 116.112 80.4709 115.941 79.9376 115.6C79.4149 115.259 79.0042 114.779 78.7056 114.16C78.4176 113.541 78.2736 112.832 78.2736 112.032C78.2736 111.221 78.4176 110.512 78.7056 109.904C79.0042 109.296 79.4149 108.827 79.9376 108.496C80.4602 108.165 81.0629 108 81.7456 108C82.3322 108 82.8442 108.128 83.2816 108.384C83.7296 108.629 84.0709 108.981 84.3056 109.44V105.376C84.3056 105.152 84.3749 104.976 84.5136 104.848C84.6629 104.709 84.8602 104.64 85.1056 104.64ZM82.1296 114.832C82.8229 114.832 83.3616 114.592 83.7456 114.112C84.1296 113.632 84.3216 112.949 84.3216 112.064C84.3216 111.179 84.1296 110.496 83.7456 110.016C83.3722 109.536 82.8336 109.296 82.1296 109.296C81.4256 109.296 80.8762 109.536 80.4816 110.016C80.0976 110.485 79.9056 111.157 79.9056 112.032C79.9056 112.907 80.1029 113.595 80.4976 114.096C80.8922 114.587 81.4362 114.832 82.1296 114.832ZM90.8947 116.112C89.8067 116.112 88.916 115.888 88.2227 115.44C88.0307 115.323 87.892 115.2 87.8067 115.072C87.732 114.944 87.6947 114.8 87.6947 114.64C87.6947 114.469 87.7427 114.325 87.8387 114.208C87.9347 114.091 88.0574 114.032 88.2067 114.032C88.3454 114.032 88.564 114.117 88.8627 114.288C89.1827 114.459 89.492 114.597 89.7907 114.704C90.1 114.811 90.484 114.864 90.9427 114.864C91.4547 114.864 91.8547 114.773 92.1427 114.592C92.4307 114.411 92.5747 114.155 92.5747 113.824C92.5747 113.611 92.516 113.44 92.3987 113.312C92.292 113.184 92.1 113.072 91.8227 112.976C91.5454 112.869 91.1347 112.757 90.5907 112.64C89.652 112.437 88.9747 112.165 88.5587 111.824C88.1534 111.472 87.9507 110.997 87.9507 110.4C87.9507 109.941 88.084 109.531 88.3507 109.168C88.6174 108.795 88.9854 108.507 89.4547 108.304C89.924 108.101 90.4574 108 91.0547 108C91.4814 108 91.8974 108.059 92.3027 108.176C92.708 108.283 93.0654 108.443 93.3747 108.656C93.7267 108.891 93.9027 109.163 93.9027 109.472C93.9027 109.643 93.8494 109.787 93.7427 109.904C93.6467 110.021 93.5294 110.08 93.3907 110.08C93.2947 110.08 93.1987 110.059 93.1027 110.016C93.0067 109.973 92.8787 109.904 92.7187 109.808C92.4307 109.637 92.1587 109.504 91.9027 109.408C91.6574 109.312 91.348 109.264 90.9747 109.264C90.5267 109.264 90.164 109.36 89.8867 109.552C89.62 109.744 89.4867 110.005 89.4867 110.336C89.4867 110.635 89.6094 110.869 89.8547 111.04C90.1107 111.2 90.5854 111.355 91.2787 111.504C91.9934 111.653 92.5534 111.824 92.9587 112.016C93.364 112.208 93.652 112.448 93.8227 112.736C94.004 113.013 94.0947 113.371 94.0947 113.808C94.0947 114.501 93.8014 115.061 93.2147 115.488C92.6387 115.904 91.8654 116.112 90.8947 116.112Z" fill="#31385C"/>
</g>
<path d="M112 111L117 113.887V108.113L112 111ZM131 111H131.5V110.5H131V111ZM131 142.887L133.887 140L131 137.113L128.113 140L131 142.887ZM116.5 111.5H131V110.5H116.5V111.5ZM130.5 111V140H131.5V111H130.5Z" fill="#31385C"/>
<defs>
<filter id="filter0_f" x="60.8262" y="101.711" width="349.048" height="235.078" filterUnits="userSpaceOnUse" color-interpolation-filters="sRGB">
<feFlood flood-opacity="0" result="BackgroundImageFix"/>
<feBlend mode="normal" in="SourceGraphic" in2="BackgroundImageFix" result="shape"/>
<feGaussianBlur stdDeviation="25" result="effect1_foregroundBlur"/>
</filter>
<filter id="filter1_d" x="174" y="0" width="90" height="32" filterUnits="userSpaceOnUse" color-interpolation-filters="sRGB">
<feFlood flood-opacity="0" result="BackgroundImageFix"/>
<feColorMatrix in="SourceAlpha" type="matrix" values="0 0 0 0 0 0 0 0 0 0 0 0 0 0 0 0 0 0 127 0" result="hardAlpha"/>
<feOffset dx="-2" dy="4"/>
<feGaussianBlur stdDeviation="2"/>
<feColorMatrix type="matrix" values="0 0 0 0 0.192157 0 0 0 0 0.219608 0 0 0 0 0.360784 0 0 0 0.1 0"/>
<feBlend mode="normal" in2="BackgroundImageFix" result="effect1_dropShadow"/>
<feBlend mode="normal" in="SourceGraphic" in2="effect1_dropShadow" result="shape"/>
</filter>
<filter id="filter2_d" x="372" y="81" width="94" height="32" filterUnits="userSpaceOnUse" color-interpolation-filters="sRGB">
<feFlood flood-opacity="0" result="BackgroundImageFix"/>
<feColorMatrix in="SourceAlpha" type="matrix" values="0 0 0 0 0 0 0 0 0 0 0 0 0 0 0 0 0 0 127 0" result="hardAlpha"/>
<feOffset dx="-2" dy="4"/>
<feGaussianBlur stdDeviation="2"/>
<feColorMatrix type="matrix" values="0 0 0 0 0.192157 0 0 0 0 0.219608 0 0 0 0 0.360784 0 0 0 0.1 0"/>
<feBlend mode="normal" in2="BackgroundImageFix" result="effect1_dropShadow"/>
<feBlend mode="normal" in="SourceGraphic" in2="effect1_dropShadow" result="shape"/>
</filter>
<filter id="filter3_d" x="0" y="99" width="113" height="32" filterUnits="userSpaceOnUse" color-interpolation-filters="sRGB">
<feFlood flood-opacity="0" result="BackgroundImageFix"/>
<feColorMatrix in="SourceAlpha" type="matrix" values="0 0 0 0 0 0 0 0 0 0 0 0 0 0 0 0 0 0 127 0" result="hardAlpha"/>
<feOffset dx="-2" dy="4"/>
<feGaussianBlur stdDeviation="2"/>
<feColorMatrix type="matrix" values="0 0 0 0 0.192157 0 0 0 0 0.219608 0 0 0 0 0.360784 0 0 0 0.1 0"/>
<feBlend mode="normal" in2="BackgroundImageFix" result="effect1_dropShadow"/>
<feBlend mode="normal" in="SourceGraphic" in2="effect1_dropShadow" result="shape"/>
</filter>
<linearGradient id="paint0_linear" x1="100.551" y1="148.969" x2="301.644" y2="36.0298" gradientUnits="userSpaceOnUse">
<stop stop-color="#0DABDF"/>
<stop offset="0.348958" stop-color="#2DD6FB"/>
</linearGradient>
<linearGradient id="paint1_linear" x1="186.406" y1="72.5382" x2="214.874" y2="167.076" gradientUnits="userSpaceOnUse">
<stop stop-color="#5FE2FF"/>
<stop offset="0.0001" stop-color="#2DD6FB"/>
<stop offset="0.890625" stop-color="#0DABDF"/>
</linearGradient>
<linearGradient id="paint2_linear" x1="282.59" y1="143.847" x2="354.915" y2="40.5493" gradientUnits="userSpaceOnUse">
<stop offset="0.348958" stop-color="#5FE2FF"/>
<stop offset="1" stop-color="#0DABDF"/>
</linearGradient>
<linearGradient id="paint3_linear" x1="322.299" y1="137.573" x2="322.299" y2="220.217" gradientUnits="userSpaceOnUse">
<stop stop-color="#A053DC"/>
<stop offset="1" stop-color="#C685F9"/>
</linearGradient>
<linearGradient id="paint4_linear" x1="287.295" y1="129.927" x2="320.317" y2="129.927" gradientUnits="userSpaceOnUse">
<stop stop-color="#C685F9"/>
<stop offset="1" stop-color="#A053DC"/>
</linearGradient>
<linearGradient id="paint5_linear" x1="260.312" y1="225.735" x2="278.445" y2="225.735" gradientUnits="userSpaceOnUse">
<stop stop-color="#A053DC"/>
<stop offset="1" stop-color="#C685F9"/>
</linearGradient>
<linearGradient id="paint6_linear" x1="131.134" y1="174.139" x2="131.134" y2="237.846" gradientUnits="userSpaceOnUse">
<stop stop-color="#5966FF"/>
<stop offset="1" stop-color="#7188FF"/>
</linearGradient>
<linearGradient id="paint7_linear" x1="179.72" y1="132.651" x2="150.207" y2="152.474" gradientUnits="userSpaceOnUse">
<stop stop-color="#7188FF"/>
<stop offset="1" stop-color="#4A57DF"/>
</linearGradient>
<linearGradient id="paint8_linear" x1="174.028" y1="196.397" x2="127.916" y2="170.798" gradientUnits="userSpaceOnUse">
<stop stop-color="#7188FF"/>
<stop offset="1" stop-color="#4A57DF"/>
</linearGradient>
<linearGradient id="paint9_linear" x1="180.548" y1="169.311" x2="201.185" y2="267.401" gradientUnits="userSpaceOnUse">
<stop stop-color="#E5E6EE"/>
<stop offset="1" stop-color="#B7BACA"/>
</linearGradient>
</defs>
</svg>
