<svg width="137" height="48" viewBox="0 0 137 48" fill="none" xmlns="http://www.w3.org/2000/svg">
<path d="M61.6688 15.8945C60.9716 14.7065 59.0327 13.5845 56.7888 13.5845C53.9348 13.5845 52.5405 14.7945 52.5405 16.3345C52.5405 18.1385 54.6537 18.6445 57.1155 18.9305C61.4074 19.4585 65.3942 20.5805 65.3942 25.5305C65.3942 30.1505 61.342 32.1305 56.767 32.1305C52.5623 32.1305 49.338 30.8325 47.813 27.0265L51.0373 25.3325C51.9523 27.6205 54.327 28.6105 56.8105 28.6105C59.2506 28.6105 61.5381 27.7525 61.5381 25.5085C61.5381 23.5505 59.512 22.7585 56.7888 22.4505C52.5841 21.9445 48.728 20.8225 48.728 16.1805C48.728 11.9125 52.8891 10.1745 56.6798 10.1305C59.8824 10.1305 63.1938 11.0545 64.7406 14.2445L61.6688 15.8945Z" fill="white"/>
<path d="M74.9582 31.8003C71.821 31.8003 68.9453 30.1063 68.9453 26.4763V20.1624H68.0085V17.0383H68.9453V10.8344H72.5182V17.0604H73.8689V20.1624H72.4964V26.4763C72.4964 27.8623 73.8471 28.5443 74.9582 28.5443V31.8003Z" fill="white"/>
<path d="M88.1604 17.0165H91.7115V31.6245H88.1604V29.4905C87.3326 31.2065 85.0886 32.0425 83.4765 32.0645C79.1846 32.0865 76.0257 29.4245 76.0257 24.2985C76.0257 19.2605 79.3371 16.6205 83.5636 16.6645C85.5026 16.6645 87.3544 17.5885 88.1604 19.0405V17.0165V17.0165ZM79.5986 24.2985C79.5986 27.0925 81.5157 28.7425 83.8904 28.7425C89.5329 28.7425 89.5329 19.8765 83.8904 19.8765C81.5157 19.8985 79.5986 21.5265 79.5986 24.2985Z" fill="white"/>
<path d="M102.387 20.2285C100.513 20.2285 98.3126 21.2405 98.3126 23.9245V31.6245H94.7397V17.0165H98.3126V18.7105C99.4237 16.9065 100.927 16.6425 102.387 16.6425V20.2285Z" fill="white"/>
<path d="M107.789 11.0325V14.4425H104.238V11.0325H107.789ZM104.282 16.9505V31.6245H107.855V16.9505H104.282Z" fill="white"/>
<path d="M118.356 13.6505C117.114 13.6505 115.828 14.4865 115.828 16.2465V17.2145H117.266V20.3825H115.828V31.6025H112.256V20.3825H110.839V17.2365H112.256V16.2685C112.256 12.3525 115.458 10.5485 118.356 10.5485V13.6505Z" fill="white"/>
<path d="M135 17.0164L126.177 37.7184H122.255L124.957 31.3824L119.183 17.0164H123.345L125.545 23.3304L126.917 27.4444L128.421 23.4184L131.057 17.0164H135V17.0164Z" fill="white"/>
<path d="M61.6688 15.8945C60.9716 14.7065 59.0327 13.5845 56.7888 13.5845C53.9348 13.5845 52.5405 14.7945 52.5405 16.3345C52.5405 18.1385 54.6537 18.6445 57.1155 18.9305C61.4074 19.4585 65.3942 20.5805 65.3942 25.5305C65.3942 30.1505 61.342 32.1305 56.767 32.1305C52.5623 32.1305 49.338 30.8325 47.813 27.0265L51.0373 25.3325C51.9523 27.6205 54.327 28.6105 56.8105 28.6105C59.2506 28.6105 61.5381 27.7525 61.5381 25.5085C61.5381 23.5505 59.512 22.7585 56.7888 22.4505C52.5841 21.9445 48.728 20.8225 48.728 16.1805C48.728 11.9125 52.8891 10.1745 56.6798 10.1305C59.8824 10.1305 63.1938 11.0545 64.7406 14.2445L61.6688 15.8945Z" fill="white"/>
<path d="M74.9582 31.8003C71.821 31.8003 68.9453 30.1063 68.9453 26.4763V20.1624H68.0085V17.0383H68.9453V10.8344H72.5182V17.0604H73.8689V20.1624H72.4964V26.4763C72.4964 27.8623 73.8471 28.5443 74.9582 28.5443V31.8003Z" fill="white"/>
<path d="M88.1604 17.0165H91.7115V31.6245H88.1604V29.4905C87.3326 31.2065 85.0886 32.0425 83.4765 32.0645C79.1846 32.0865 76.0257 29.4245 76.0257 24.2985C76.0257 19.2605 79.3371 16.6205 83.5636 16.6645C85.5026 16.6645 87.3544 17.5885 88.1604 19.0405V17.0165V17.0165ZM79.5986 24.2985C79.5986 27.0925 81.5157 28.7425 83.8904 28.7425C89.5329 28.7425 89.5329 19.8765 83.8904 19.8765C81.5157 19.8985 79.5986 21.5265 79.5986 24.2985Z" fill="white"/>
<path d="M102.387 20.2285C100.513 20.2285 98.3126 21.2405 98.3126 23.9245V31.6245H94.7397V17.0165H98.3126V18.7105C99.4237 16.9065 100.927 16.6425 102.387 16.6425V20.2285Z" fill="white"/>
<path d="M107.789 11.0325V14.4425H104.238V11.0325H107.789ZM104.282 16.9505V31.6245H107.855V16.9505H104.282Z" fill="white"/>
<path d="M118.356 13.6505C117.114 13.6505 115.828 14.4865 115.828 16.2465V17.2145H117.266V20.3825H115.828V31.6025H112.256V20.3825H110.839V17.2365H112.256V16.2685C112.256 12.3525 115.458 10.5485 118.356 10.5485V13.6505Z" fill="white"/>
<path d="M135 17.0164L126.177 37.7184H122.255L124.957 31.3824L119.183 17.0164H123.345L125.545 23.3304L126.917 27.4444L128.421 23.4184L131.057 17.0164H135V17.0164Z" fill="white"/>
<path d="M39.7331 13V35L30.2999 29.5L20.8666 24L39.7331 13Z" fill="white"/>
<path d="M20.8666 24L2 35V13L20.8666 24Z" fill="white"/>
<path d="M20.8666 2V13L11.4333 18.5L2 13L20.8666 2Z" fill="white"/>
<path d="M39.7331 35L20.8666 46V35L30.2999 29.5L39.7331 35Z" fill="white"/>
</svg>
