<svg width="570" height="306" viewBox="0 0 570 306" fill="none" xmlns="http://www.w3.org/2000/svg">
<path d="M15.3014 284.157C22.353 291.747 30.0278 298.733 38.2456 305.042C40.6404 306.888 51.803 305.042 54.6647 305.042H533.488C537.547 305.042 545.148 306.432 548.913 304.798C556.818 301.358 553.216 285.517 552.495 278.353C551.379 267.19 548.761 256.028 542.784 246.377C526.456 220.074 497.9 210.677 475.423 191.204C453.453 172.187 438.231 146.766 420.178 124.005C406.071 106.212 390.148 89.9383 372.666 75.4477C361.504 66.2132 349.489 57.5774 335.627 53.4371C323.51 49.8042 310.572 49.8042 297.999 51.2452C260.868 55.593 226.185 71.9897 199.261 97.925C169.213 127.069 144.27 170.309 104.622 187.347C82.906 196.683 58.3991 197.942 36.6321 207.156C14.865 216.37 -4.97389 238.675 1.11478 261.507C3.45892 270.255 9.20257 277.592 15.3014 284.157Z" fill="#EEFAFE"/>
<path d="M533.976 213.123C538.177 213.823 542.673 213.803 546.478 211.885C548.386 210.931 550.182 209.287 550.365 207.156C550.401 206.195 550.235 205.238 549.878 204.345C547.26 196.724 540.745 191.153 534.199 186.445C529.328 182.913 524.052 179.483 518.024 178.915C505.38 177.728 501.696 187.713 508.201 196.816C514.335 205.407 523.585 211.26 533.976 213.123Z" fill="#E3EFFF"/>
<path d="M178.619 146.523C141.275 137.035 130.782 117.308 130.782 117.308H78.2979C78.2979 117.308 67.805 137.015 30.4612 146.523C30.4612 146.523 5.7107 244.957 101.1 304.433H107.96C203.349 244.926 178.619 146.523 178.619 146.523Z" fill="#A0AAFF"/>
<path d="M166.839 156.732C135.432 148.756 126.593 132.164 126.593 132.164H82.4601C82.4601 132.164 73.6315 148.756 42.2139 156.732C42.2139 156.732 21.3906 239.518 101.639 289.587H107.413C187.662 239.507 166.839 156.732 166.839 156.732Z" fill="#627BFF"/>
<path d="M161.806 161.116C132.956 153.779 124.838 138.527 124.838 138.527H84.2463C84.2463 138.527 76.1281 153.749 47.2576 161.116C47.2576 161.116 28.1189 237.225 101.873 283.225H107.18C180.945 237.204 161.806 161.116 161.806 161.116Z" fill="#DAE0FF"/>
<path d="M152.895 214.751C159.116 188.038 142.504 161.339 115.791 155.118C89.0774 148.896 62.3786 165.509 56.1573 192.222C49.936 218.935 66.5481 245.634 93.2615 251.856C119.975 258.077 146.674 241.465 152.895 214.751Z" fill="#7188FF"/>
<path d="M109.646 245.008C132.575 242.185 148.873 221.309 146.05 198.38C143.226 175.452 122.35 159.153 99.4219 161.977C76.4934 164.8 60.1951 185.676 63.0184 208.604C65.8418 231.533 86.7178 247.831 109.646 245.008Z" fill="white"/>
<path d="M84.2166 206.183L102.219 217.274L125.133 177.921L129.242 180.691L105.466 229.076L79.8125 214.981L84.2166 206.183Z" fill="#5966FF"/>
<path d="M496.977 140.242L505.623 136.7L507.947 129.353L502.913 121.479L511.559 117.937L513.883 110.6L508.86 102.726L517.506 99.1839L521.19 87.5647L518.5 66.1021L505.085 61.8604L491.172 78.0562L447.385 216.259L477.402 225.768L502 148.117L496.977 140.242Z" fill="#C685F9"/>
<path d="M452.611 199.788L447.395 216.258L477.412 225.766L483.125 207.723C474.084 202.499 463.824 199.755 453.382 199.768L452.611 199.788Z" fill="#DAAAFF"/>
<path d="M500.268 79.297L456.006 218.997L459.837 220.211L504.099 80.5107L500.268 79.297Z" fill="#ECEEFF"/>
<path d="M459.836 220.227L465.925 201.129C464.616 200.845 463.287 200.611 461.937 200.408L456.041 219.009L459.836 220.227Z" fill="#C685F9"/>
<path d="M453.371 206.569C441.737 206.566 430.432 210.435 421.239 217.565C412.046 224.695 405.488 234.682 402.597 245.951C399.706 257.221 400.647 269.131 405.273 279.806C409.898 290.482 417.944 299.314 428.143 304.912H478.608C488.808 299.314 496.855 290.48 501.48 279.804C506.105 269.128 507.046 257.216 504.154 245.946C501.261 234.677 494.701 224.69 485.506 217.56C476.312 210.431 465.006 206.564 453.371 206.569ZM453.371 286.94C447.84 286.938 442.434 285.296 437.836 282.222C433.238 279.147 429.655 274.779 427.54 269.668C425.424 264.558 424.872 258.935 425.952 253.51C427.032 248.086 429.697 243.103 433.609 239.193C437.52 235.283 442.504 232.62 447.928 231.542C453.353 230.464 458.976 231.018 464.086 233.135C469.196 235.252 473.563 238.837 476.636 243.436C479.708 248.035 481.348 253.442 481.348 258.973C481.348 262.646 480.624 266.284 479.218 269.678C477.812 273.071 475.751 276.155 473.153 278.752C470.555 281.349 467.471 283.409 464.076 284.814C460.682 286.219 457.044 286.941 453.371 286.94Z" fill="#A053DC"/>
<path d="M453.371 302.81C462.042 302.812 470.519 300.242 477.729 295.427C484.94 290.611 490.56 283.765 493.88 275.755C497.2 267.744 498.069 258.93 496.379 250.425C494.688 241.921 490.514 234.108 484.383 227.976C478.253 221.844 470.442 217.668 461.938 215.976C453.434 214.284 444.619 215.151 436.608 218.469C428.596 221.787 421.749 227.405 416.932 234.615C412.114 241.824 409.543 250.3 409.543 258.971C409.543 270.596 414.16 281.745 422.379 289.966C430.598 298.187 441.746 302.807 453.371 302.81ZM453.371 228.416C459.415 228.416 465.322 230.208 470.347 233.566C475.371 236.923 479.288 241.695 481.6 247.278C483.913 252.862 484.518 259.005 483.339 264.932C482.16 270.859 479.25 276.304 474.977 280.577C470.704 284.85 465.259 287.76 459.332 288.939C453.405 290.118 447.262 289.513 441.678 287.2C436.095 284.888 431.323 280.972 427.966 275.947C424.608 270.922 422.816 265.015 422.816 258.971C422.819 250.868 426.039 243.098 431.769 237.369C437.498 231.639 445.268 228.419 453.371 228.416Z" fill="#ECEEFF"/>
<path d="M453.372 299.095C461.308 299.095 469.066 296.742 475.664 292.333C482.263 287.924 487.406 281.658 490.443 274.326C493.479 266.994 494.274 258.927 492.726 251.143C491.178 243.36 487.356 236.21 481.745 230.599C476.133 224.987 468.984 221.166 461.2 219.618C453.417 218.069 445.349 218.864 438.017 221.901C430.686 224.938 424.419 230.081 420.01 236.679C415.601 243.278 413.248 251.035 413.248 258.971C413.251 269.612 417.479 279.816 425.003 287.34C432.527 294.865 442.732 299.093 453.372 299.095ZM453.372 231.004C458.904 231.004 464.311 232.644 468.91 235.717C473.509 238.79 477.094 243.158 479.211 248.268C481.328 253.379 481.882 259.002 480.802 264.427C479.723 269.852 477.06 274.836 473.148 278.747C469.237 282.658 464.254 285.322 458.829 286.401C453.403 287.48 447.78 286.926 442.67 284.81C437.559 282.693 433.192 279.108 430.118 274.509C427.045 269.91 425.405 264.502 425.405 258.971C425.405 251.554 428.352 244.44 433.597 239.195C438.841 233.95 445.955 231.004 453.372 231.004Z" fill="#C685F9"/>
<path d="M564.125 256.991C564.125 256.362 564.125 255.743 564.034 255.124L570.001 252.252L567.515 244.581L560.99 245.758C560.35 244.683 559.62 243.664 558.808 242.713L561.944 236.868L555.429 232.139L550.872 236.909C549.719 236.43 548.528 236.05 547.31 235.772L546.428 229.217H538.37L537.487 235.772C536.27 236.05 535.078 236.43 533.925 236.909L529.369 232.139L522.854 236.868L525.99 242.713C525.178 243.664 524.448 244.683 523.808 245.758L517.283 244.581L514.797 252.232L520.764 255.104C520.764 255.723 520.672 256.342 520.672 256.971C520.672 257.6 520.672 258.219 520.764 258.828L514.797 261.71L517.283 269.361L523.808 268.174C524.448 269.249 525.178 270.267 525.99 271.219L522.854 277.053L529.369 281.782L533.925 277.013C535.077 277.496 536.269 277.877 537.487 278.149L538.37 284.715H546.428L547.31 278.149C548.529 277.877 549.721 277.496 550.872 277.013L555.429 281.782L561.944 277.053L558.808 271.219C559.62 270.267 560.35 269.249 560.99 268.174L567.515 269.361L570.001 261.71L564.034 258.828C564.085 258.239 564.125 257.62 564.125 256.991ZM542.399 269.169C539.99 269.169 537.636 268.454 535.634 267.116C533.631 265.778 532.07 263.876 531.148 261.651C530.227 259.426 529.986 256.978 530.456 254.616C530.925 252.253 532.085 250.084 533.788 248.381C535.491 246.678 537.661 245.518 540.023 245.048C542.385 244.578 544.834 244.819 547.059 245.741C549.284 246.663 551.186 248.223 552.524 250.226C553.862 252.228 554.576 254.583 554.576 256.991C554.565 260.214 553.278 263.301 550.995 265.576C548.713 267.851 545.621 269.128 542.399 269.128V269.169Z" fill="#AFBBFD"/>
<path d="M542.397 274.751C545.91 274.751 549.343 273.709 552.263 271.758C555.184 269.806 557.46 267.033 558.804 263.788C560.148 260.543 560.5 256.972 559.815 253.528C559.13 250.083 557.438 246.918 554.955 244.435C552.471 241.951 549.307 240.26 545.862 239.575C542.417 238.889 538.846 239.241 535.601 240.585C532.356 241.929 529.583 244.205 527.632 247.126C525.68 250.046 524.639 253.48 524.639 256.992C524.641 261.701 526.513 266.217 529.843 269.546C533.173 272.876 537.688 274.748 542.397 274.751ZM542.397 244.845C544.806 244.845 547.16 245.559 549.163 246.897C551.165 248.235 552.726 250.137 553.648 252.362C554.569 254.588 554.811 257.036 554.341 259.398C553.871 261.76 552.711 263.93 551.008 265.633C549.305 267.336 547.135 268.496 544.773 268.966C542.411 269.436 539.962 269.195 537.737 268.273C535.512 267.351 533.61 265.79 532.272 263.788C530.934 261.785 530.22 259.431 530.22 257.022C530.22 255.423 530.535 253.84 531.147 252.362C531.759 250.885 532.656 249.543 533.787 248.412C534.917 247.281 536.26 246.384 537.737 245.772C539.215 245.16 540.798 244.845 542.397 244.845Z" fill="#7188FF"/>
<path d="M532.614 179.33H486.695V188.149H532.614V179.33Z" fill="#FFBA53"/>
<path d="M529.989 161.695H484.07V170.514H529.989V161.695Z" fill="#FFBA53"/>
<path d="M534.239 152.886H488.32V161.704H534.239V152.886Z" fill="#FFD353"/>
<path d="M525.382 170.513H479.463V179.331H525.382V170.513Z" fill="#FFD353"/>
<path d="M345.868 43.5903L340.646 64.8365C340.124 66.959 341.422 69.1026 343.544 69.6244L382.272 79.1441C384.395 79.6658 386.539 78.3681 387.06 76.2455L392.283 54.9993C392.805 52.8768 391.507 50.7332 389.384 50.2114L350.656 40.6917C348.534 40.17 346.39 41.4677 345.868 43.5903Z" fill="#C685F9"/>
<path d="M366.454 73.4292C373.92 73.4292 379.971 67.3775 379.971 59.9124C379.971 52.4472 373.92 46.3955 366.454 46.3955C358.989 46.3955 352.938 52.4472 352.938 59.9124C352.938 67.3775 358.989 73.4292 366.454 73.4292Z" fill="#B1C9F1"/>
<path d="M359.128 64.4868L362.02 52.7864C362.065 52.5432 362.174 52.3162 362.335 52.1283C362.496 51.9404 362.704 51.7982 362.937 51.7159C363.171 51.6337 363.422 51.6143 363.665 51.6597C363.908 51.7051 364.135 51.8137 364.323 51.9746L375.029 60.7322C375.235 60.9008 375.39 61.124 375.476 61.3764C375.561 61.6288 375.574 61.9001 375.512 62.1593C375.451 62.4186 375.318 62.6554 375.128 62.8427C374.939 63.0299 374.701 63.1601 374.441 63.2184L360.843 66.2627C360.6 66.3248 360.345 66.3214 360.103 66.253C359.862 66.1845 359.643 66.0535 359.469 65.8731C359.295 65.6927 359.172 65.4695 359.112 65.226C359.052 64.9825 359.057 64.7275 359.128 64.4868Z" fill="white"/>
<path d="M310.391 41.5293L307.565 53.0294C307.302 54.0962 307.955 55.1735 309.021 55.4357L329.548 60.4814C330.615 60.7436 331.692 60.0914 331.954 59.0247L334.781 47.5245C335.043 46.4578 334.391 45.3805 333.325 45.1183L312.798 40.0726C311.731 39.8104 310.654 40.4626 310.391 41.5293Z" fill="#B1C9F1"/>
<path d="M366.082 19.6635L363.824 28.8478C363.562 29.9146 364.214 30.9919 365.281 31.2541L382.132 35.3962C383.199 35.6584 384.276 35.0062 384.538 33.9395L386.796 24.7552C387.058 23.6885 386.406 22.6111 385.339 22.3489L368.488 18.2068C367.421 17.9446 366.344 18.5968 366.082 19.6635Z" fill="#AFBBFD"/>
<path d="M266.528 67.9748L245.093 155.177C244.315 158.344 246.251 161.543 249.419 162.322L344.298 185.644C347.465 186.422 350.664 184.486 351.443 181.318L372.878 94.1164C373.656 90.9489 371.72 87.7499 368.552 86.9713L273.673 63.6493C270.506 62.8707 267.307 64.8073 266.528 67.9748Z" fill="#C685F9"/>
<path d="M269.843 71.4551L249.643 153.631C249.018 156.173 250.572 158.74 253.114 159.365L342.395 181.311C344.937 181.935 347.504 180.382 348.128 177.84L368.328 95.6637C368.953 93.1221 367.399 90.5552 364.857 89.9305L275.576 67.9843C273.034 67.3596 270.467 68.9135 269.843 71.4551Z" fill="#5672B3"/>
<path d="M340.791 178.874L255.662 157.95C254.445 157.649 253.398 156.88 252.747 155.809C252.097 154.738 251.897 153.454 252.191 152.236L271.472 73.9055C271.62 73.3011 271.887 72.732 272.255 72.2305C272.624 71.729 273.087 71.305 273.62 70.9827C274.152 70.6605 274.743 70.4462 275.358 70.3522C275.973 70.2582 276.601 70.2863 277.205 70.4349L362.295 91.3495C362.899 91.4981 363.468 91.7643 363.97 92.1328C364.471 92.5014 364.895 92.9651 365.217 93.4975C365.54 94.0299 365.754 94.6206 365.848 95.2358C365.942 95.851 365.914 96.4787 365.765 97.083L346.484 175.414C346.182 176.624 345.414 177.665 344.349 178.313C343.283 178.961 342.005 179.163 340.791 178.874Z" fill="#E3EDF7"/>
<path d="M354.117 107.293C354.117 109.599 353.432 111.854 352.151 113.772C350.869 115.689 349.048 117.184 346.916 118.066C344.785 118.948 342.44 119.178 340.178 118.728C337.916 118.277 335.839 117.165 334.208 115.534C332.578 113.902 331.468 111.824 331.02 109.561C330.571 107.299 330.803 104.954 331.687 102.824C332.571 100.693 334.067 98.8729 335.986 97.5929C337.905 96.3129 340.16 95.6308 342.467 95.6328C343.998 95.6328 345.513 95.9345 346.927 96.5206C348.341 97.1066 349.626 97.9657 350.708 99.0485C351.79 100.131 352.648 101.417 353.233 102.831C353.817 104.246 354.118 105.762 354.117 107.293Z" fill="white"/>
<path d="M294.793 106.622C285.132 102.888 257.926 127.232 257.926 127.232L252.07 151.039C251.783 152.216 251.973 153.46 252.601 154.497C253.229 155.533 254.242 156.279 255.419 156.569L316.631 171.629L326.281 166.504L310.136 142.149C310.136 142.149 302.333 109.545 294.793 106.622Z" fill="#A7BDE3"/>
<path d="M331.395 127.587C322.77 128.003 289.434 153.129 281.072 164.19L341.32 179.006C342.396 179.268 343.532 179.095 344.481 178.525C345.431 177.956 346.118 177.035 346.394 175.962L353.497 147.01C348.586 140.242 338.184 127.253 331.395 127.587Z" fill="#B1C9F1"/>
<path d="M266.906 160.7C266.906 160.7 297.877 131.84 306.828 129.729C315.778 127.618 329.518 176.094 329.518 176.094L266.906 160.7Z" fill="#BED1F1"/>
<path d="M278.564 127.578C276.707 126.229 265.757 133.606 254.767 141.785L252.19 152.238C252.041 152.842 252.013 153.47 252.107 154.085C252.201 154.7 252.415 155.291 252.738 155.823C253.06 156.355 253.484 156.819 253.985 157.188C254.487 157.556 255.056 157.822 255.66 157.971L286.043 165.43C286.043 165.43 282.481 130.44 278.564 127.578Z" fill="#C9D9F5"/>
<path d="M341.768 151.08C336.988 150.623 308.006 170.817 308.006 170.817L340.793 178.875C341.398 179.023 342.025 179.051 342.641 178.957C343.256 178.863 343.847 178.649 344.379 178.327C344.911 178.005 345.375 177.581 345.744 177.079C346.112 176.578 346.378 176.009 346.527 175.404L350.028 161.197C347.562 155.991 345.126 151.405 341.768 151.08Z" fill="#C9D9F5"/>
<path d="M209.864 170.238C243.092 170.238 270.03 143.3 270.03 110.072C270.03 76.8426 243.092 49.9053 209.864 49.9053C176.635 49.9053 149.697 76.8426 149.697 110.072C149.697 143.3 176.635 170.238 209.864 170.238Z" fill="#FFD353"/>
<path d="M269.251 119.763L222.257 109.737L268.835 98.1276C268.456 96.2875 268.003 94.4845 267.475 92.7188L220.907 104.328L257.632 73.509C256.495 72.0376 255.298 70.6068 254.04 69.247L217.325 100.056L236.819 56.2781C235.154 55.446 233.46 54.695 231.745 54.0151L212.657 96.8287V49.9763C211.723 49.9763 210.8 49.9053 209.866 49.9053C208.933 49.9053 207.999 49.9053 207.076 49.9763V97.8739L186.07 54.8168C184.358 55.5474 182.667 56.3593 180.996 57.2523L202.002 100.33L164.292 70.8097C163.075 72.2169 161.925 73.6815 160.842 75.2037L198.622 104.714L151.669 94.7382C151.202 96.5242 150.816 98.3508 150.512 100.198L197.466 110.173L150.847 121.792C151.202 123.629 151.658 125.435 152.186 127.201L198.866 115.582L162.029 146.482C163.159 147.963 164.353 149.391 165.612 150.764L202.448 119.854L182.873 163.814C184.537 164.646 186.229 165.404 187.947 166.087L207.035 123.081V170.177C207.958 170.177 208.882 170.248 209.826 170.248C210.769 170.248 211.683 170.248 212.616 170.177V122.046L233.713 165.306C235.428 164.565 237.103 163.743 238.726 162.86L217.629 119.6L255.562 149.191C256.766 147.784 257.909 146.316 258.992 144.787L221.1 115.196L268.114 125.192C268.581 123.406 268.936 121.579 269.251 119.763Z" fill="#FFE692"/>
<path d="M209.864 160.701C237.824 160.701 260.491 138.034 260.491 110.074C260.491 82.1129 237.824 59.4463 209.864 59.4463C181.903 59.4463 159.236 82.1129 159.236 110.074C159.236 138.034 181.903 160.701 209.864 160.701Z" fill="#EE9F53"/>
<path d="M227.514 154.096C251.829 144.351 263.64 116.74 253.895 92.425C244.15 68.1098 216.539 56.2984 192.224 66.0435C167.909 75.7885 156.097 103.4 165.842 127.715C175.587 152.03 203.199 163.842 227.514 154.096Z" fill="#FFBA53"/>
<path d="M390.454 283.315L388.516 298.111L380.672 297.542L381.879 282.828L390.454 283.315Z" fill="#E38F6F"/>
<path d="M400.033 96.6974C399.194 95.4307 398.641 93.9968 398.411 92.4952C398.182 90.9935 398.281 89.4599 398.703 88.0006C399.125 86.5412 399.859 85.1909 400.854 84.0433C401.849 82.8956 403.082 81.978 404.467 81.3539C405.735 80.7007 407.204 80.552 408.577 80.9379C409.774 81.3641 410.688 82.3585 411.835 82.8964C413.752 83.7792 416.147 83.3124 417.923 84.4388C419.227 85.4283 420.099 86.8821 420.359 88.498C420.596 90.113 420.969 91.7051 421.475 93.2573C422.421 95.1865 423.812 96.8631 425.534 98.1485C426.301 98.7283 426.984 99.4113 427.564 100.178C428.024 100.866 428.306 101.657 428.384 102.481C428.462 103.305 428.333 104.135 428.01 104.897C426.941 107.702 426.739 110.764 427.432 113.685C428.446 119.134 430.598 124.32 432.688 129.454C433.245 130.965 433.587 132.547 433.703 134.153C433.815 134.611 433.819 135.088 433.715 135.548C433.611 136.007 433.402 136.436 433.104 136.801C432.455 137.4 431.42 137.39 430.74 137.968C429.898 138.689 429.958 139.998 429.725 141.064C429.543 141.869 429.161 142.615 428.613 143.233C428.065 143.851 427.37 144.32 426.592 144.597C425.814 144.873 424.978 144.948 424.164 144.815C423.349 144.682 422.581 144.344 421.932 143.834C420.217 142.484 419.608 140.201 419.009 138.1C417.384 132.73 415.477 127.45 413.296 122.28C411.652 118.221 410.84 113.715 409.622 109.463C408.977 106.808 407.984 104.249 406.669 101.852C405.279 99.5895 402.702 97.2758 400.033 96.6974Z" fill="#5A4868"/>
<path d="M466.857 219.749L481.754 219.83L481.724 227.695L466.949 227.482L466.857 219.749Z" fill="#E38F6F"/>
<path d="M490.522 248.489L488.391 217.345C486.543 216.855 484.583 216.99 482.82 217.731C479.989 218.979 478.599 218.746 479.045 220.501C479.492 222.257 481.369 222.531 480.669 224.114C479.968 225.697 479.319 226.965 479.968 228.173C480.618 229.38 483.338 230.821 484.87 236.108C486.595 242.075 487.265 244.754 487.498 245.739C488.178 248.641 490.522 248.489 490.522 248.489Z" fill="#58B9D6"/>
<path d="M487.987 246.977C488.235 247.431 488.6 247.811 489.045 248.077C489.489 248.343 489.996 248.485 490.514 248.489L488.393 217.345C487.593 217.133 486.766 217.037 485.938 217.061L487.987 246.977Z" fill="#B7E6F1"/>
<path d="M420.706 159.341C420.706 159.341 423.984 167.114 420.706 187.004C418.118 202.692 420.706 220.005 420.706 220.005C420.706 220.005 459.684 217.255 472.297 219.193V229.097C472.297 229.097 440.108 230.842 429.595 231.319C419.082 231.796 412.131 231.482 410.03 226.793C407.93 222.105 405.494 199.618 405.494 199.618C405.494 199.618 401.293 211.917 399.842 215.631C398.391 219.345 398.381 219.03 398.218 220.167C398.614 234.205 397.529 248.246 394.981 262.057C390.618 285.671 390.922 288.746 390.922 288.746C390.922 288.746 383.646 290.359 379.922 287.122C379.922 287.122 382.966 241.031 384.448 229.381C385.929 217.731 388.01 198.004 389.786 189.429C391.561 180.854 393.845 160.315 393.733 158.377C393.621 156.439 420.706 159.341 420.706 159.341Z" fill="#4E4C71"/>
<path d="M410.223 107.515C410.223 107.515 420.218 114.446 422.644 118.21C425.069 121.975 424.338 126.521 422.948 131.859C421.558 137.197 421.192 150.957 421.426 155.575L421.669 160.182C421.669 160.182 421.842 160.669 416.058 161.511C410.273 162.353 405.778 159.938 402.51 160.182C399.243 160.425 392.19 159.938 392.19 159.938C392.19 159.938 392.921 148.897 392.19 148.41C391.459 147.923 377.638 149.506 365.867 146.837L366.881 140.749C366.881 140.749 377.679 141.601 381.433 140.992C385.188 140.383 392.718 139.785 392.718 139.785C392.718 139.785 392.352 135.898 392.109 132.986C392.002 130.154 392.043 127.319 392.231 124.492C392.231 124.492 382.895 132.864 380.591 133.716C378.288 134.569 363.34 133.036 363.34 133.036L364.832 126.948C364.832 126.948 373.691 126.532 377.455 126.166C377.455 126.166 388.74 114.466 391.896 112.771C395.052 111.076 403.535 107.464 403.535 107.464L410.223 107.515Z" fill="#58B9D6"/>
<path d="M410.537 101.235C410.537 101.235 410.03 106.867 410.091 107.324C410.152 107.78 411.542 108.338 411.481 109.353C411.42 110.368 408.264 118.212 404.996 117.299C401.729 116.386 400.988 109.353 401.78 108.44C402.571 107.527 403.413 106.867 403.231 103.285C403.048 99.7026 410.537 101.235 410.537 101.235Z" fill="#C8776F"/>
<path d="M399.953 95.0738C399.953 95.0738 399.842 103.365 404.611 104.785C409.381 106.206 412.374 97.4991 412.577 96.9004C412.78 96.3017 413.105 97.2251 413.988 95.8044C414.871 94.3837 414.597 91.8874 413.744 91.8062C412.892 91.725 412.212 91.6844 411.887 92.892C411.562 94.0996 411.522 96.4945 410.71 96.1291C409.898 95.7638 410.233 92.1208 409.949 91.9685C409.117 91.4916 407.99 91.9685 407.097 91.6032C406.59 91.4003 406.204 90.9132 405.667 90.7914C405.129 90.6696 404.398 91.0857 403.769 91.3191C403.276 91.4991 402.747 91.5561 402.227 91.4854C401.707 91.4147 401.212 91.2183 400.785 90.9132C400.45 91.2875 400.247 91.7617 400.207 92.2628C400.045 93.2066 400.055 94.1199 399.953 95.0738Z" fill="#E38F6F"/>
<path d="M411.482 145.863C406.408 147.69 391.105 148.319 391.105 148.319C391.47 148.292 391.836 148.323 392.191 148.41C392.557 148.654 392.557 151.454 392.475 154.275C398.016 152.662 406.906 150.338 411.482 148.319C418.119 145.386 422.767 129.251 422.767 129.251C422.767 129.251 416.576 144.046 411.482 145.863Z" fill="#59A5CE"/>
<path d="M402.591 136.528C401.089 137.045 395.965 137.096 392.443 137.066C392.585 138.618 392.697 139.805 392.697 139.805C392.697 139.805 400.704 138.73 403.981 138.791C408.199 134.549 411.574 129.546 413.926 124.046C413.926 124.046 404.915 135.716 402.591 136.528Z" fill="#59A5CE"/>
<path d="M401.944 176.643C401.944 176.643 404.207 200.947 399.844 215.62C401.295 211.906 405.496 199.607 405.496 199.607C405.496 199.607 405.658 186.506 401.944 176.643Z" fill="#383752"/>
<path d="M366.839 140.769C366.839 140.769 363.886 139.805 363.521 139.196C363.155 138.587 362.374 136.751 362.374 136.751L361.836 138.953C359.882 138.536 357.959 137.983 356.082 137.299C352.845 136.121 350.704 134.63 350.055 134.609C349.918 134.616 349.783 134.65 349.66 134.709C349.536 134.769 349.426 134.853 349.336 134.956C349.246 135.06 349.178 135.18 349.136 135.311C349.093 135.441 349.078 135.579 349.09 135.715L349.202 136.162C349.202 136.162 346.736 134.782 346.158 135.147C345.579 135.513 345.336 135.959 345.701 136.446C346.066 136.933 352.693 140.16 353.099 140.323C353.505 140.485 346.432 137.857 345.823 138.019C345.214 138.181 344.808 139.034 345.529 139.44C346.249 139.846 352.632 141.865 352.632 141.865C351.563 141.587 350.468 141.424 349.364 141.378C348.888 141.54 348.685 141.987 349.09 142.555C349.496 143.123 353.454 144.859 355.027 145.062C356.6 145.265 360.689 144.94 361.298 145.062C361.907 145.183 365.987 146.147 365.987 146.147L366.839 140.769Z" fill="#E38F6F"/>
<path d="M359.32 304.911H390.535C391.156 303.102 391.156 301.138 390.535 299.33C389.52 296.417 389.804 295.037 388.028 295.362C386.253 295.687 385.847 297.554 384.304 296.742C382.762 295.93 381.554 295.2 380.245 295.727C378.936 296.255 377.383 298.904 371.995 300.071C365.906 301.39 363.207 301.867 362.212 302.039C359.32 302.567 359.32 304.911 359.32 304.911Z" fill="#58B9D6"/>
<path d="M360.995 302.484C360.526 302.704 360.124 303.044 359.829 303.471C359.535 303.897 359.36 304.393 359.32 304.91H390.535C390.804 304.128 390.958 303.311 390.992 302.484H360.995Z" fill="#B7E6F1"/>
<path d="M309.826 3.84294L305.689 20.6743C305.167 22.7969 306.465 24.9405 308.587 25.4623L342.891 33.8943C345.013 34.4161 347.157 33.1184 347.679 30.9958L351.816 14.1644C352.338 12.0418 351.04 9.89821 348.917 9.37646L314.614 0.944408C312.492 0.422665 310.348 1.72038 309.826 3.84294Z" fill="#7188FF"/>
<path d="M339.422 10.6047L325.611 7.00225L324.282 6.65723L323.896 8.1388L320.548 20.9758C319.918 20.3105 319.112 19.8388 318.224 19.616C316.103 19.068 314.063 19.8798 313.657 21.4324C313.251 22.985 314.672 24.7 316.752 25.2581C318.833 25.8163 320.913 24.9943 321.319 23.4417L325.226 8.49398L339.037 12.0964L336.561 21.5745C335.933 20.9089 335.126 20.44 334.237 20.2248C332.126 19.6667 330.076 20.4785 329.67 22.0413C329.265 23.604 330.685 25.2987 332.776 25.8568C334.866 26.415 336.936 25.593 337.342 24.0404C337.357 23.8953 337.357 23.7491 337.342 23.604H337.393L340.315 12.4415L340.701 10.9599L339.422 10.6047Z" fill="white"/>
<path d="M458.477 78.0667L444.057 68.5075L458.477 58.9482L472.907 68.5075L458.477 78.0667Z" fill="#D7EAFF"/>
<path d="M444.057 83.7681L458.477 93.3172V78.0651L444.057 68.5059V83.7681Z" fill="#CEE1F5"/>
<path d="M472.907 83.7681L458.477 93.3172V78.0651L472.907 68.5059V83.7681Z" fill="#B9D3F0"/>
<path d="M79.1819 79.3334L61.6465 67.7243L79.1819 56.1152L96.7071 67.7243L79.1819 79.3334Z" fill="#D7EAFF"/>
<path d="M61.6465 86.2758L79.1819 97.8848V79.3347L61.6465 67.7256V86.2758Z" fill="#CEE1F5"/>
<path d="M96.7088 86.2758L79.1836 97.8848V79.3347L96.7088 67.7256V86.2758Z" fill="#B9D3F0"/>
<path d="M236.016 114.467C235.346 110.083 232.789 107.434 228.527 106.348C228.04 106.217 227.512 106.348 227.045 105.861C227.129 105.75 227.224 105.648 227.33 105.557C228.563 104.708 229.557 103.557 230.218 102.214C230.879 100.871 231.184 99.3801 231.105 97.8852C231.197 95.6175 230.506 93.3871 229.148 91.5687C227.789 89.7504 225.847 88.4548 223.646 87.8998C221.262 87.2544 218.798 86.9537 216.329 87.0068C215.416 87.0068 214.99 86.7835 214.949 85.7586C214.858 83.3434 214.594 80.9282 214.472 78.5029C214.461 78.2637 214.413 78.0275 214.33 77.8027L208.424 78.2289C208.419 78.2965 208.419 78.3643 208.424 78.4319C208.678 80.9688 208.85 83.5058 209.104 86.0326C209.175 86.7429 208.993 87.0474 208.272 87.1489C207.359 87.23 206.445 87.3112 205.552 87.4736C204.659 87.6359 204.325 87.2706 204.284 86.337C204.183 83.8711 203.949 81.4153 203.807 78.9596C203.8 78.8293 203.78 78.7001 203.746 78.574L198.094 78.99C198.061 79.1747 198.061 79.3635 198.094 79.5482C198.307 81.8416 198.439 84.135 198.632 86.4385C198.784 88.1738 198.723 88.2651 197.049 88.4681H196.572L188.027 89.1784H187.875L188.494 95.5614C189.509 95.4497 190.584 95.3584 191.63 95.2874C192.034 95.2074 192.452 95.2169 192.853 95.3151C193.253 95.4133 193.628 95.5979 193.95 95.856C194.271 96.1141 194.533 96.4395 194.716 96.8093C194.899 97.1791 194.999 97.5844 195.009 97.9968C195.212 99.3262 195.263 100.686 195.384 102.056C196.061 109.301 196.717 116.547 197.353 123.793C197.495 125.376 196.836 126.157 195.232 126.34C194.37 126.431 193.497 126.522 192.624 126.573C192.533 127.943 192.32 131.018 192.096 133.788C195.141 133.534 198.185 133.494 201.229 133.098C202.112 132.986 202.376 133.291 202.417 134.194C202.539 136.751 202.792 139.268 202.975 141.876L209.064 141.531V141.419C208.82 139.014 208.698 136.589 208.485 134.174C208.404 133.271 208.577 132.733 209.622 132.723C210.416 132.704 211.206 132.619 211.986 132.469C212.899 132.307 213.265 132.591 213.305 133.555C213.437 136.051 213.671 138.547 213.823 141.044C213.823 141.125 213.823 141.186 213.823 141.267L219.912 140.922C219.688 138.436 219.627 135.929 219.414 133.443C219.313 132.327 219.698 131.901 220.764 131.738C223.287 131.365 225.754 130.683 228.111 129.709C231.642 128.247 234.443 126.005 235.61 122.209C236.327 119.692 236.466 117.045 236.016 114.467ZM206.73 106.572C206.445 103.135 206.141 99.6983 205.816 96.2616C205.755 95.5918 205.816 95.3077 206.659 95.2468C209.865 95.0235 213.072 94.6176 216.228 95.5817C220.196 96.7893 221.606 101.295 218.877 104.014C217.904 104.982 216.698 105.681 215.376 106.044C212.834 106.802 210.203 107.221 207.552 107.292C207.034 107.323 206.78 107.17 206.73 106.572ZM221.545 123.559C220.819 123.992 220.042 124.333 219.232 124.574C215.822 125.761 212.443 125.924 209.084 126.289C208.516 126.35 208.292 126.086 208.252 125.558C207.9 121.722 207.541 117.89 207.176 114.061C207.176 113.564 207.176 113.249 207.795 113.188C211.195 112.894 214.584 112.427 218.004 112.874C219.151 113.008 220.27 113.319 221.322 113.797C222.268 114.183 223.076 114.846 223.639 115.699C224.202 116.552 224.495 117.555 224.478 118.577C224.53 119.604 224.281 120.625 223.759 121.512C223.238 122.399 222.469 123.115 221.545 123.569V123.559Z" fill="#FFF3D3"/>
<path d="M258.026 16.3968C259.374 20.7029 259.415 25.3122 258.143 29.6415C256.871 33.9709 254.344 37.8259 250.882 40.7189C247.419 43.6119 243.176 45.413 238.689 45.8943C234.203 46.3757 229.674 45.5157 225.676 43.4232C221.679 41.3306 218.391 38.0995 216.23 34.1384C214.069 30.1774 213.131 25.6644 213.535 21.1703C213.939 16.6761 215.666 12.4027 218.499 8.89051C221.332 5.37831 225.143 2.78512 229.45 1.43892C232.308 0.544035 235.315 0.221092 238.298 0.488544C241.282 0.755996 244.183 1.6086 246.837 2.99765C249.49 4.38671 251.844 6.28499 253.764 8.58405C255.684 10.8831 257.132 13.5379 258.026 16.3968Z" fill="#2DD6FB"/>
<path d="M254.485 17.5039C255.613 21.1088 255.647 24.9674 254.582 28.5916C253.517 32.2158 251.402 35.4429 248.503 37.8647C245.604 40.2866 242.052 41.7944 238.297 42.1976C234.541 42.6007 230.75 41.8811 227.403 40.1296C224.056 38.3782 221.304 35.6736 219.494 32.3579C217.685 29.0423 216.899 25.2644 217.237 21.5022C217.574 17.7399 219.02 14.1622 221.391 11.2216C223.761 8.2809 226.951 6.10935 230.556 4.98152C235.39 3.46932 240.626 3.93906 245.114 6.28741C249.601 8.63577 252.972 12.6704 254.485 17.5039Z" fill="#CBF0FC"/>
<path d="M252.468 26.5355C254.303 17.592 248.539 8.85488 239.596 7.02066C230.652 5.18644 221.915 10.9497 220.081 19.8932C218.247 28.8367 224.01 37.5738 232.953 39.4081C241.897 41.2423 250.634 35.479 252.468 26.5355Z" fill="white"/>
<path d="M244.65 27.9568C244.814 27.1661 244.718 26.3436 244.376 25.6121C244.034 24.8806 243.464 24.2792 242.753 23.8977C242.58 23.7962 242.357 23.7759 242.245 23.5425C242.29 23.5054 242.338 23.4715 242.387 23.4411C242.962 23.2259 243.475 22.8712 243.879 22.4089C244.283 21.9466 244.565 21.3911 244.701 20.7925C245.007 19.9216 245.006 18.9725 244.7 18.1017C244.394 17.231 243.8 16.4906 243.017 16.0027C242.193 15.4887 241.297 15.1021 240.358 14.856C240.013 14.7546 239.871 14.6226 239.972 14.2066C240.216 13.1918 240.398 12.2379 240.622 11.2637C240.64 11.1665 240.64 11.0667 240.622 10.9694L238.338 10.5026C238.331 10.5292 238.331 10.5573 238.338 10.5838C238.146 11.5986 237.922 12.6134 237.719 13.6789C237.669 13.9732 237.567 14.0848 237.283 14.0341C236.999 13.9833 236.573 13.9021 236.268 13.8616C235.964 13.821 235.822 13.6586 235.913 13.273C236.157 12.2582 236.349 11.2434 236.583 10.2895C236.587 10.2355 236.587 10.1812 236.583 10.1272L234.391 9.68066C234.357 9.74767 234.333 9.81953 234.32 9.89377C234.137 10.8274 233.924 11.761 233.741 12.6946C233.589 13.4049 233.559 13.4353 232.909 13.3237H232.727L229.358 12.6438L228.83 15.2417L230.048 15.4751C230.217 15.4865 230.382 15.5358 230.53 15.6193C230.678 15.7029 230.805 15.8185 230.902 15.9577C231 16.0969 231.065 16.2562 231.092 16.4238C231.12 16.5914 231.11 16.7631 231.062 16.9262C230.991 17.4742 230.849 18.0222 230.748 18.5701C230.159 21.5333 229.581 24.4863 228.992 27.4494C228.991 27.5795 228.958 27.7074 228.898 27.8227C228.838 27.9381 228.752 28.0378 228.646 28.1138C228.541 28.1897 228.419 28.2399 228.29 28.2602C228.162 28.2806 228.03 28.2705 227.907 28.2308C227.561 28.1699 227.227 28.1192 226.892 28.038L225.877 30.8591C227.064 31.0925 228.231 31.4071 229.429 31.5796C229.774 31.5796 229.835 31.7826 229.753 32.1479C229.5 33.1627 229.307 34.2282 229.084 35.2633L231.407 35.7909C231.59 34.7762 231.824 33.8324 232.027 32.8481C232.098 32.4828 232.219 32.2798 232.615 32.3914C232.917 32.4717 233.227 32.5227 233.539 32.5436C233.904 32.5436 234.015 32.7364 233.914 33.1221C233.681 34.1368 233.478 35.1516 233.254 36.1664C233.25 36.1967 233.25 36.2275 233.254 36.2577L235.599 36.7854C235.801 35.7706 236.065 34.7559 236.268 33.7411C236.36 33.2946 236.552 33.1627 236.979 33.2134C237.989 33.3489 239.013 33.3489 240.023 33.2134C240.765 33.1638 241.486 32.9417 242.127 32.5647C242.768 32.1877 243.313 31.6662 243.717 31.0418C244.252 30.0952 244.571 29.0416 244.65 27.9568ZM234.503 21.6348C234.787 20.2344 235.071 18.834 235.335 17.4234C235.335 17.1494 235.467 17.0581 235.771 17.119C237.023 17.2738 238.232 17.6701 239.333 18.286C239.643 18.4779 239.9 18.7459 240.078 19.0647C240.255 19.3835 240.349 19.7425 240.349 20.1075C240.349 20.4725 240.255 20.8315 240.078 21.1503C239.9 21.4691 239.643 21.7372 239.333 21.9291C238.864 22.2003 238.332 22.3438 237.79 22.3451C236.744 22.3781 235.698 22.2584 234.685 21.9899C234.503 21.9595 234.432 21.8682 234.482 21.6348H234.503ZM238.166 30.0168C237.835 30.1114 237.495 30.1659 237.151 30.1792C235.786 30.2066 234.422 30.0634 233.092 29.753C232.869 29.753 232.818 29.5906 232.859 29.3775L233.772 24.6791C233.772 24.4761 233.853 24.3544 234.107 24.395C235.44 24.5851 236.747 24.9255 238.004 25.4097C238.421 25.5925 238.808 25.8389 239.15 26.1404C239.467 26.4113 239.697 26.769 239.813 27.1694C239.928 27.5699 239.924 27.9953 239.8 28.3932C239.7 28.7898 239.493 29.1513 239.201 29.4377C238.909 29.7242 238.544 29.9246 238.146 30.0168H238.166Z" fill="#20BDF2"/>
<path d="M141.62 283.438L140.615 297.208L148.257 297.989L148.662 295.655L149.626 284.351L141.62 283.438Z" fill="#E38F6F"/>
<path d="M190.332 281.692L195.71 295.31L202.306 291.89L197.608 277.409L190.332 281.692Z" fill="#E38F6F"/>
<path d="M125.851 86.9059C126.871 84.9224 127.092 82.6239 126.47 80.4823C125.374 77.0828 122.584 76.961 120.95 76.1086C119.316 75.2562 114.577 74.4748 112.456 76.5348C110.335 78.5948 109.412 80.117 108.58 80.5939C107.748 81.0709 106.997 83.3237 107.666 85.5055C108.336 87.6873 110.092 88.1743 110.335 89.9299C110.48 90.7953 110.847 91.6084 111.4 92.2896C111.954 92.9708 112.674 93.4969 113.491 93.8165C114.151 94.0412 114.854 94.114 115.546 94.0297C116.238 93.9454 116.902 93.706 117.489 93.3294C117.601 93.0351 125.851 86.9059 125.851 86.9059Z" fill="#5A4868"/>
<path d="M131.029 151.648C131.029 151.648 132.166 162.81 136.925 172.309C141.684 181.807 146.302 195.121 146.535 196.815C146.769 198.51 145.084 216.715 145.936 232.333C146.789 247.95 142.293 280.494 140.112 284.979C140.112 284.979 145.693 288.257 151.031 286.684C151.031 286.684 156.104 252.111 158.428 239.73C160.752 227.35 162.071 193.751 162.071 193.751C164.04 197.452 165.703 201.307 167.044 205.279C168.617 210.495 173.711 235.976 180.875 255.378C188.04 274.781 188.993 282.919 188.993 282.919C188.993 282.919 197.112 281.58 200.024 279.155C200.024 279.155 189.552 252.628 180.987 214.462C180.987 214.462 176.451 189.874 174.188 184.212C171.925 178.549 154.268 140.059 152.847 138.628C151.426 137.197 131.029 151.648 131.029 151.648Z" fill="#4E4C71"/>
<path d="M118.09 99.529C118.09 99.529 112.143 105.465 110.631 109.474C109.119 113.482 114.03 121.002 115.705 125.061C117.379 129.12 119.947 135.127 124.442 134.884C124.442 134.884 128.136 144.017 127.831 147.751C127.527 151.486 127.537 152.298 127.537 152.298C127.537 152.298 142.576 149.811 146.635 146.716C149.711 144.183 152.535 141.359 155.068 138.283C154.105 137.832 153.255 137.169 152.582 136.345C151.973 135.33 149.365 129.069 149.365 129.069C149.365 129.069 160.893 125.365 164.719 123.183C168.544 121.002 169.326 120.576 169.326 120.576L167.205 116.019C167.205 116.019 155.433 120.21 146.818 122.27L143.185 112.995C144.875 113.904 146.617 114.714 148.401 115.42C148.939 115.53 149.486 115.591 150.035 115.603C150.035 115.603 149.487 108.317 149.852 106.257C146.353 104.631 143.005 102.699 139.846 100.483C135.625 97.3371 135.442 97.2153 134.407 97.0326C133.372 96.85 124.259 98.0474 124.259 98.0474L118.09 99.529Z" fill="#FC736B"/>
<path d="M125.334 97.4382C124.547 95.77 124.075 93.9706 123.943 92.1309L117.256 93.8458C117.256 93.8458 118.453 97.9861 118.088 99.5083C117.723 101.03 124.522 101.477 125.638 100.523C126.754 99.5692 125.334 97.4382 125.334 97.4382Z" fill="#C8776F"/>
<path d="M125.792 85.982C125.792 85.982 126.726 96.1298 121.794 95.9268C116.862 95.7239 114.345 89.7772 114.345 89.7772C113.988 89.8787 113.61 89.8803 113.253 89.7819C112.895 89.6835 112.571 89.4888 112.316 89.2191C111.808 88.6652 111.458 87.9855 111.301 87.2504C111.179 86.8141 111.118 86.2357 111.463 85.982C111.58 85.8966 111.717 85.8417 111.86 85.8223C112.004 85.8028 112.15 85.8193 112.285 85.8703C112.548 85.9834 112.791 86.1376 113.006 86.327L114.021 87.1693C114.082 87.233 114.156 87.2824 114.239 87.314C114.321 87.3456 114.41 87.3585 114.498 87.3519C114.721 87.3519 114.812 87.0475 114.853 86.8242C115.056 85.7124 115.015 84.5696 114.731 83.4755C116.629 83.4755 118.607 83.4755 120.191 82.3896C120.42 82.6262 120.697 82.8118 121.003 82.9342C121.309 83.0566 121.637 83.1131 121.966 83.1C122.623 83.0579 123.272 82.9283 123.894 82.7144C124.148 83.585 124.463 84.4362 124.838 85.2615C125.031 85.5964 125.396 86.0733 125.792 85.982Z" fill="#E38F6F"/>
<path d="M126.795 141.664C134.72 137.199 145.934 131.516 149.648 129.689L149.384 129.07C149.384 129.07 133.35 134.469 124.461 134.885C124.461 134.885 125.851 138.213 126.795 141.664Z" fill="#D5616B"/>
<path d="M128.987 123.822C126.914 119.463 124.216 115.429 120.98 111.848C124.025 116.211 128.256 126.055 128.256 126.055C134.543 125.311 140.757 124.052 146.837 122.29L128.987 123.822Z" fill="#D5616B"/>
<path d="M167.455 116.354C168.532 115.981 169.486 115.321 170.215 114.446C170.936 113.269 172.123 112.721 172.397 112.903C172.671 113.086 172.336 114.02 172.61 113.918C172.884 113.817 177.491 110.468 178.313 110.194C179.135 109.92 179.49 110.285 179.216 110.681C178.942 111.077 174.944 113.725 174.944 113.725C174.944 113.725 180.13 110.904 180.708 110.752C181.287 110.6 181.459 111.239 181.459 111.483C181.459 111.726 175.523 115.034 175.523 115.034C176.93 114.419 178.378 113.9 179.856 113.482C180.221 113.573 180.404 113.847 180.099 114.304C179.795 114.76 175.786 116.455 175.786 116.455C176.45 116.285 177.131 116.193 177.816 116.181C177.999 116.333 177.816 116.912 177.329 117.196C176.293 117.801 175.127 118.149 173.929 118.211C172.192 118.424 170.473 118.763 168.784 119.225L167.455 116.354Z" fill="#E38F6F"/>
<path d="M164.289 198.307C165.426 193.233 166.968 183.086 162.422 177.92C156.232 170.908 150.904 153.505 150.904 153.505C153.248 167.458 161.925 182.68 162.381 184.78C162.838 186.881 162.036 193.781 162.036 193.781C162.036 193.781 163.102 195.71 164.289 198.307Z" fill="#383752"/>
<path d="M139.835 304.91H168.381C168.381 304.91 169.061 303.814 166.27 302.485C163.48 301.156 159.167 301.267 151.891 298.111C150.994 297.761 150.228 297.14 149.699 296.335C148.684 294.884 147.111 296.092 146.655 296.335C146.13 296.612 145.543 296.75 144.949 296.735C144.356 296.721 143.776 296.556 143.265 296.254C141.723 295.361 140.434 295.686 139.866 296.498C139.372 297.471 139.201 298.577 139.379 299.654C139.723 301.384 139.876 303.147 139.835 304.91Z" fill="#75ADD3"/>
<path d="M139.834 304.911H168.38C168.38 304.911 168.969 303.897 166.564 302.648H139.773C139.865 303.399 139.886 304.157 139.834 304.911Z" fill="#608EAD"/>
<path d="M195.111 300.871L222.815 293.981C222.815 293.981 223.211 292.763 220.176 292.144C217.142 291.525 212.992 292.682 205.168 291.373C204.215 291.249 203.324 290.83 202.621 290.175C201.251 289.018 200.043 290.561 199.637 290.916C199.193 291.311 198.655 291.587 198.074 291.716C197.493 291.846 196.889 291.826 196.319 291.657C194.614 291.17 193.437 291.789 193.082 292.672C192.836 293.735 192.939 294.848 193.376 295.848C194.138 297.453 194.72 299.138 195.111 300.871Z" fill="#75ADD3"/>
<path d="M195.111 300.872L222.814 293.982C222.814 293.982 223.139 292.866 220.501 292.227L194.502 298.691C194.77 299.398 194.974 300.128 195.111 300.872Z" fill="#608EAD"/>
<path d="M146.838 60.1959C163.455 60.1959 176.926 46.725 176.926 30.1077C176.926 13.4905 163.455 0.0195312 146.838 0.0195312C130.221 0.0195312 116.75 13.4905 116.75 30.1077C116.75 46.725 130.221 60.1959 146.838 60.1959Z" fill="#7188FF"/>
<path d="M146.837 55.2936C160.748 55.2936 172.024 44.017 172.024 30.1067C172.024 16.1964 160.748 4.91992 146.837 4.91992C132.927 4.91992 121.65 16.1964 121.65 30.1067C121.65 44.017 132.927 55.2936 146.837 55.2936Z" fill="#A0AAFF"/>
<path d="M146.836 52.4134C159.155 52.4134 169.141 42.4272 169.141 30.1086C169.141 17.7899 159.155 7.80371 146.836 7.80371C134.517 7.80371 124.531 17.7899 124.531 30.1086C124.531 42.4272 134.517 52.4134 146.836 52.4134Z" fill="#E9F3FF"/>
<path d="M146.814 9.04102V39.5047L159.936 30.4732L146.814 9.04102Z" fill="#A0AAFF"/>
<path d="M146.814 25.3994V39.5048L159.936 30.4733L146.814 25.3994Z" fill="#5966FF"/>
<path d="M146.816 9.04102V39.5047L133.695 30.4732L146.816 9.04102Z" fill="#7188FF"/>
<path d="M146.816 25.3994V39.5048L133.695 30.4733L146.816 25.3994Z" fill="#627BFF"/>
<path d="M146.814 51.1848L160.433 32.5332L146.814 42.2142V51.1848Z" fill="#A0AAFF"/>
<path d="M146.868 51.1848L133.25 32.5332L146.868 42.2142V51.1848Z" fill="#7188FF"/>
<path d="M315.818 200.621H253.531C251.905 200.621 250.588 201.939 250.588 203.564V265.851C250.588 267.476 251.905 268.794 253.531 268.794H315.818C317.443 268.794 318.761 267.476 318.761 265.851V203.564C318.761 201.939 317.443 200.621 315.818 200.621Z" fill="#C685F9"/>
<path d="M312.225 207.168H257.143V262.25H312.225V207.168Z" fill="#EE9F53"/>
<path d="M308.522 210.87H260.848V258.544H308.522V210.87Z" fill="#FFBA53"/>
<path d="M261.386 187.398C260.883 187.398 260.4 187.598 260.044 187.954C259.688 188.31 259.488 188.793 259.488 189.296V200.621H263.294V189.296C263.291 188.792 263.089 188.309 262.731 187.954C262.374 187.598 261.89 187.398 261.386 187.398Z" fill="#7960B3"/>
<path d="M272.991 187.398C272.488 187.398 272.005 187.598 271.65 187.954C271.294 188.31 271.094 188.793 271.094 189.296V200.621H274.889V189.296C274.889 188.793 274.689 188.31 274.333 187.954C273.977 187.598 273.495 187.398 272.991 187.398Z" fill="#7960B3"/>
<path d="M284.683 187.398C284.179 187.398 283.695 187.598 283.338 187.954C282.98 188.309 282.778 188.792 282.775 189.296V200.621H286.581V189.296C286.581 188.793 286.381 188.31 286.025 187.954C285.669 187.598 285.186 187.398 284.683 187.398Z" fill="#7960B3"/>
<path d="M296.333 187.398C295.83 187.398 295.347 187.598 294.991 187.954C294.635 188.31 294.436 188.793 294.436 189.296V200.621H298.241V189.296C298.238 188.792 298.036 188.309 297.679 187.954C297.321 187.598 296.837 187.398 296.333 187.398Z" fill="#7960B3"/>
<path d="M307.974 187.398C307.471 187.398 306.988 187.598 306.632 187.954C306.276 188.31 306.076 188.793 306.076 189.296V200.621H309.871V189.296C309.871 188.793 309.672 188.31 309.316 187.954C308.96 187.598 308.477 187.398 307.974 187.398Z" fill="#7960B3"/>
<path d="M307.974 282.018C308.477 282.018 308.96 281.818 309.316 281.462C309.672 281.106 309.872 280.623 309.872 280.12V268.795H306.076V280.1C306.074 280.35 306.121 280.599 306.215 280.832C306.309 281.065 306.448 281.276 306.625 281.455C306.801 281.633 307.011 281.775 307.243 281.871C307.475 281.968 307.723 282.018 307.974 282.018Z" fill="#7960B3"/>
<path d="M296.333 282.018C296.838 282.018 297.321 281.818 297.679 281.462C298.036 281.107 298.238 280.624 298.241 280.12V268.795H294.436V280.1C294.433 280.35 294.48 280.599 294.574 280.832C294.668 281.065 294.808 281.276 294.984 281.455C295.161 281.633 295.371 281.775 295.602 281.871C295.834 281.968 296.082 282.018 296.333 282.018Z" fill="#7960B3"/>
<path d="M284.683 282.018C285.186 282.018 285.669 281.818 286.025 281.462C286.381 281.106 286.581 280.623 286.581 280.12V268.795H282.775V280.1C282.774 280.351 282.822 280.6 282.918 280.833C283.013 281.065 283.153 281.277 283.331 281.455C283.508 281.633 283.719 281.775 283.951 281.871C284.183 281.968 284.432 282.018 284.683 282.018Z" fill="#7960B3"/>
<path d="M272.991 282.018C273.495 282.018 273.977 281.818 274.333 281.462C274.689 281.106 274.889 280.623 274.889 280.12V268.795H271.094V280.1C271.091 280.35 271.138 280.599 271.232 280.832C271.327 281.065 271.466 281.276 271.642 281.455C271.819 281.633 272.029 281.775 272.261 281.871C272.492 281.968 272.741 282.018 272.991 282.018Z" fill="#7960B3"/>
<path d="M261.386 282.018C261.89 282.018 262.374 281.818 262.731 281.462C263.089 281.107 263.291 280.624 263.294 280.12V268.795H259.488V280.1C259.486 280.35 259.533 280.599 259.627 280.832C259.721 281.065 259.86 281.276 260.037 281.455C260.213 281.633 260.424 281.775 260.655 281.871C260.887 281.968 261.135 282.018 261.386 282.018Z" fill="#7960B3"/>
<path d="M331.994 211.42C331.994 210.915 331.794 210.432 331.439 210.074C331.083 209.717 330.601 209.514 330.096 209.512H318.771V213.317H330.096C330.6 213.317 331.082 213.117 331.438 212.761C331.794 212.405 331.994 211.923 331.994 211.42Z" fill="#7960B3"/>
<path d="M331.994 223.059C331.994 222.81 331.945 222.563 331.85 222.333C331.754 222.102 331.614 221.893 331.438 221.717C331.262 221.541 331.053 221.401 330.823 221.306C330.592 221.21 330.346 221.161 330.096 221.161H318.771V224.967H330.096C330.601 224.964 331.083 224.762 331.439 224.404C331.794 224.047 331.994 223.563 331.994 223.059Z" fill="#7960B3"/>
<path d="M331.994 234.707C331.994 234.204 331.794 233.721 331.438 233.365C331.082 233.01 330.6 232.81 330.096 232.81H318.771V236.605H330.096C330.6 236.605 331.082 236.405 331.438 236.049C331.794 235.693 331.994 235.211 331.994 234.707Z" fill="#7960B3"/>
<path d="M331.994 246.357C331.994 245.853 331.794 245.369 331.439 245.012C331.083 244.654 330.601 244.452 330.096 244.449H318.771V248.255H330.096C330.6 248.255 331.082 248.055 331.438 247.699C331.794 247.343 331.994 246.86 331.994 246.357Z" fill="#7960B3"/>
<path d="M331.994 257.997C331.994 257.494 331.794 257.011 331.438 256.655C331.082 256.3 330.6 256.1 330.096 256.1H318.771V259.905H330.096C330.601 259.902 331.083 259.7 331.439 259.343C331.794 258.985 331.994 258.501 331.994 257.997Z" fill="#7960B3"/>
<path d="M237.363 257.997C237.363 258.248 237.413 258.496 237.509 258.727C237.604 258.959 237.745 259.169 237.922 259.346C238.099 259.523 238.31 259.664 238.541 259.76C238.772 259.856 239.021 259.905 239.271 259.905H250.586V256.1H239.271C238.767 256.1 238.283 256.299 237.926 256.655C237.568 257.01 237.366 257.493 237.363 257.997Z" fill="#7960B3"/>
<path d="M237.363 246.357C237.366 246.861 237.568 247.344 237.926 247.699C238.283 248.055 238.767 248.255 239.271 248.255H250.586V244.449H239.271C238.765 244.449 238.28 244.65 237.922 245.008C237.564 245.366 237.363 245.851 237.363 246.357Z" fill="#7960B3"/>
<path d="M237.363 234.707C237.366 235.211 237.568 235.694 237.926 236.05C238.283 236.405 238.767 236.605 239.271 236.605H250.586V232.81H239.271C238.767 232.81 238.283 233.009 237.926 233.365C237.568 233.72 237.366 234.203 237.363 234.707Z" fill="#7960B3"/>
<path d="M237.363 223.059C237.363 223.565 237.564 224.05 237.922 224.408C238.28 224.766 238.765 224.967 239.271 224.967H250.586V221.161H239.271C238.767 221.161 238.283 221.361 237.926 221.716C237.568 222.072 237.366 222.555 237.363 223.059Z" fill="#7960B3"/>
<path d="M237.363 211.42C237.366 211.924 237.568 212.406 237.926 212.762C238.283 213.118 238.767 213.317 239.271 213.317H250.586V209.512H239.271C238.765 209.512 238.28 209.713 237.922 210.071C237.564 210.428 237.363 210.914 237.363 211.42Z" fill="#7960B3"/>
<path d="M298.233 197.882H294.428V200.622H298.233V197.882Z" fill="#654C9F"/>
<path d="M286.581 197.882H282.775V200.622H286.581V197.882Z" fill="#654C9F"/>
<path d="M263.294 197.882H259.488V200.622H263.294V197.882Z" fill="#654C9F"/>
<path d="M274.944 197.882H271.139V200.622H274.944V197.882Z" fill="#654C9F"/>
<path d="M321.511 209.512H318.771V213.317H321.511V209.512Z" fill="#654C9F"/>
<path d="M321.511 256.1H318.771V259.905H321.511V256.1Z" fill="#654C9F"/>
<path d="M321.511 221.161H318.771V224.967H321.511V221.161Z" fill="#654C9F"/>
<path d="M321.511 232.81H318.771V236.615H321.511V232.81Z" fill="#654C9F"/>
<path d="M321.511 244.449H318.771V248.255H321.511V244.449Z" fill="#654C9F"/>
<path d="M263.294 268.795H259.488V271.535H263.294V268.795Z" fill="#654C9F"/>
<path d="M250.597 232.81H247.857V236.615H250.597V232.81Z" fill="#654C9F"/>
<path d="M250.597 221.161H247.857V224.967H250.597V221.161Z" fill="#654C9F"/>
<path d="M250.597 209.512H247.857V213.317H250.597V209.512Z" fill="#654C9F"/>
<path d="M250.597 244.449H247.857V248.255H250.597V244.449Z" fill="#654C9F"/>
<path d="M250.597 256.1H247.857V259.905H250.597V256.1Z" fill="#654C9F"/>
<path d="M309.882 197.882H306.076V200.622H309.882V197.882Z" fill="#654C9F"/>
<path d="M286.581 268.795H282.775V271.535H286.581V268.795Z" fill="#654C9F"/>
<path d="M298.233 268.795H294.428V271.535H298.233V268.795Z" fill="#654C9F"/>
<path d="M274.944 268.795H271.139V271.535H274.944V268.795Z" fill="#654C9F"/>
<path d="M309.882 268.795H306.076V271.535H309.882V268.795Z" fill="#654C9F"/>
<path d="M369.763 203.311H353.912C353.852 203.311 353.792 203.325 353.738 203.351C353.683 203.377 353.635 203.416 353.598 203.463L345.144 214.95H334.175C334.072 214.95 333.974 214.991 333.902 215.063C333.83 215.135 333.789 215.233 333.789 215.336C333.789 215.438 333.83 215.536 333.902 215.608C333.974 215.681 334.072 215.721 334.175 215.721H357.22C357.323 215.721 357.421 215.681 357.493 215.608C357.565 215.536 357.606 215.438 357.606 215.336C357.606 215.233 357.565 215.135 357.493 215.063C357.421 214.991 357.323 214.95 357.22 214.95H346.058L354.064 204.082H369.722C369.825 204.082 369.923 204.041 369.995 203.969C370.067 203.897 370.108 203.798 370.108 203.696C370.108 203.594 370.067 203.496 369.995 203.423C369.923 203.351 369.825 203.311 369.722 203.311H369.763Z" fill="#C685F9"/>
<path d="M363.37 227.857C363.421 227.857 363.471 227.847 363.517 227.828C363.564 227.808 363.607 227.78 363.643 227.744C363.678 227.708 363.707 227.666 363.726 227.619C363.746 227.572 363.755 227.522 363.755 227.472C363.755 227.421 363.746 227.371 363.726 227.324C363.707 227.277 363.678 227.235 363.643 227.199C363.607 227.163 363.564 227.135 363.517 227.115C363.471 227.096 363.421 227.086 363.37 227.086H334.175C334.072 227.086 333.974 227.127 333.902 227.199C333.83 227.271 333.789 227.369 333.789 227.472C333.789 227.574 333.83 227.672 333.902 227.744C333.974 227.817 334.072 227.857 334.175 227.857H363.37Z" fill="#C685F9"/>
<path d="M366.118 246.825H352.023L347.608 239.326C347.573 239.268 347.524 239.22 347.465 239.187C347.407 239.153 347.341 239.135 347.273 239.133H332.722C332.619 239.133 332.521 239.173 332.449 239.246C332.377 239.318 332.336 239.416 332.336 239.518C332.336 239.621 332.377 239.719 332.449 239.791C332.521 239.863 332.619 239.904 332.722 239.904H347.071L351.485 247.403C351.521 247.459 351.57 247.506 351.629 247.538C351.687 247.57 351.753 247.586 351.82 247.586H366.128C366.183 247.595 366.24 247.592 366.294 247.577C366.347 247.562 366.397 247.535 366.44 247.499C366.483 247.463 366.517 247.418 366.54 247.367C366.564 247.317 366.576 247.261 366.576 247.205C366.576 247.149 366.564 247.094 366.54 247.043C366.517 246.993 366.483 246.948 366.44 246.911C366.397 246.875 366.347 246.849 366.294 246.834C366.24 246.819 366.183 246.816 366.128 246.825H366.118Z" fill="#C685F9"/>
<path d="M358.926 256.688H337.413C337.311 256.688 337.213 256.728 337.14 256.8C337.068 256.873 337.027 256.971 337.027 257.073C337.027 257.175 337.068 257.273 337.14 257.346C337.213 257.418 337.311 257.459 337.413 257.459H358.926C359.029 257.459 359.127 257.418 359.199 257.346C359.271 257.273 359.312 257.175 359.312 257.073C359.312 256.971 359.271 256.873 359.199 256.8C359.127 256.728 359.029 256.688 358.926 256.688Z" fill="#C685F9"/>
<path d="M233.979 216.585C234.03 216.583 234.077 216.561 234.113 216.526C234.149 216.49 234.17 216.442 234.172 216.392C234.172 216.341 234.152 216.292 234.116 216.256C234.079 216.22 234.03 216.199 233.979 216.199H219.042L215.216 209.421C215.201 209.391 215.177 209.367 215.148 209.351C215.119 209.335 215.087 209.327 215.054 209.329H208.255C208.226 209.323 208.197 209.323 208.169 209.329C208.14 209.335 208.114 209.348 208.091 209.366C208.068 209.384 208.05 209.407 208.037 209.433C208.024 209.459 208.018 209.488 208.018 209.517C208.018 209.546 208.024 209.575 208.037 209.601C208.05 209.627 208.068 209.65 208.091 209.668C208.114 209.686 208.14 209.699 208.169 209.705C208.197 209.712 208.226 209.711 208.255 209.705H214.942L218.605 216.199H201.527L197.579 213.155C197.561 213.137 197.54 213.123 197.516 213.113C197.493 213.103 197.468 213.098 197.442 213.098C197.417 213.098 197.391 213.103 197.368 213.113C197.344 213.123 197.323 213.137 197.305 213.155C197.271 213.192 197.252 213.241 197.252 213.292C197.252 213.343 197.271 213.392 197.305 213.429L201.303 216.473C201.344 216.482 201.385 216.482 201.425 216.473L233.979 216.585Z" fill="#C685F9"/>
<path d="M233.976 229.908H209.875C209.849 229.906 209.823 229.91 209.799 229.919C209.775 229.928 209.753 229.943 209.735 229.961C209.717 229.979 209.703 230.001 209.694 230.025C209.684 230.049 209.68 230.075 209.682 230.1C209.682 230.151 209.702 230.201 209.738 230.237C209.775 230.273 209.824 230.293 209.875 230.293H233.976C234.026 230.291 234.074 230.27 234.109 230.234C234.145 230.198 234.166 230.151 234.169 230.1C234.169 230.049 234.148 230 234.112 229.964C234.076 229.928 234.027 229.908 233.976 229.908Z" fill="#C685F9"/>
<path d="M233.976 244.581H215.923C215.872 244.581 215.823 244.601 215.787 244.638C215.751 244.674 215.73 244.723 215.73 244.774V251.989H205.319C205.29 251.982 205.261 251.982 205.233 251.989C205.204 251.995 205.178 252.008 205.155 252.026C205.132 252.044 205.114 252.067 205.101 252.093C205.089 252.119 205.082 252.148 205.082 252.177C205.082 252.206 205.089 252.234 205.101 252.261C205.114 252.287 205.132 252.31 205.155 252.328C205.178 252.346 205.204 252.358 205.233 252.365C205.261 252.371 205.29 252.371 205.319 252.364H215.923C215.948 252.364 215.973 252.359 215.996 252.35C216.018 252.34 216.039 252.325 216.056 252.307C216.073 252.289 216.086 252.268 216.095 252.245C216.104 252.221 216.107 252.196 216.106 252.172V244.967H233.976C234.027 244.967 234.076 244.946 234.112 244.91C234.149 244.874 234.169 244.825 234.169 244.774C234.166 244.724 234.145 244.676 234.11 244.64C234.074 244.605 234.026 244.584 233.976 244.581Z" fill="#C685F9"/>
<path d="M232.27 262.056H214.136C214.085 262.056 214.036 262.077 214 262.113C213.964 262.149 213.943 262.198 213.943 262.249C213.946 262.299 213.967 262.347 214.003 262.383C214.038 262.418 214.086 262.439 214.136 262.442H232.311C232.362 262.442 232.411 262.422 232.447 262.385C232.483 262.349 232.504 262.3 232.504 262.249C232.507 262.219 232.502 262.189 232.491 262.162C232.479 262.134 232.461 262.11 232.438 262.091C232.415 262.072 232.388 262.059 232.359 262.053C232.329 262.047 232.299 262.048 232.27 262.056Z" fill="#C685F9"/>
<path d="M373.56 203.695C373.558 204.062 373.447 204.42 373.242 204.724C373.037 205.028 372.746 205.265 372.406 205.404C372.067 205.543 371.694 205.578 371.334 205.505C370.975 205.432 370.645 205.255 370.386 204.995C370.127 204.735 369.951 204.404 369.881 204.044C369.81 203.684 369.847 203.311 369.988 202.972C370.129 202.633 370.367 202.344 370.672 202.14C370.977 201.937 371.336 201.828 371.703 201.828C371.947 201.828 372.19 201.876 372.416 201.97C372.642 202.064 372.847 202.202 373.019 202.376C373.192 202.549 373.329 202.755 373.421 202.982C373.514 203.208 373.561 203.451 373.56 203.695Z" fill="#FFBA53"/>
<path d="M360.947 215.336C360.947 215.703 360.838 216.062 360.634 216.367C360.43 216.673 360.139 216.911 359.8 217.051C359.461 217.192 359.087 217.229 358.727 217.157C358.367 217.085 358.036 216.908 357.776 216.649C357.517 216.389 357.34 216.058 357.268 215.698C357.196 215.338 357.233 214.964 357.374 214.625C357.514 214.286 357.752 213.996 358.058 213.791C358.363 213.587 358.722 213.479 359.089 213.479C359.582 213.479 360.054 213.674 360.403 214.022C360.751 214.371 360.947 214.843 360.947 215.336Z" fill="#FFBA53"/>
<path d="M367.092 227.432C367.092 227.801 366.982 228.163 366.776 228.47C366.571 228.777 366.279 229.017 365.937 229.158C365.595 229.299 365.219 229.335 364.857 229.262C364.494 229.189 364.161 229.011 363.901 228.748C363.64 228.486 363.463 228.153 363.392 227.79C363.321 227.427 363.36 227.051 363.503 226.71C363.645 226.369 363.886 226.078 364.195 225.874C364.503 225.67 364.865 225.562 365.235 225.564C365.479 225.564 365.722 225.613 365.948 225.707C366.174 225.801 366.379 225.938 366.551 226.112C366.724 226.286 366.861 226.491 366.953 226.718C367.046 226.944 367.093 227.187 367.092 227.432Z" fill="#FFBA53"/>
<path d="M360.785 258.93C361.81 258.93 362.642 258.098 362.642 257.073C362.642 256.047 361.81 255.216 360.785 255.216C359.759 255.216 358.928 256.047 358.928 257.073C358.928 258.098 359.759 258.93 360.785 258.93Z" fill="#FFBA53"/>
<path d="M369.846 247.2C369.848 247.57 369.74 247.932 369.535 248.241C369.331 248.55 369.039 248.791 368.698 248.933C368.356 249.076 367.98 249.113 367.617 249.042C367.254 248.97 366.92 248.792 366.658 248.53C366.396 248.269 366.218 247.935 366.147 247.572C366.075 247.209 366.113 246.832 366.255 246.491C366.398 246.149 366.639 245.858 366.947 245.653C367.256 245.449 367.618 245.341 367.989 245.343C368.481 245.343 368.953 245.538 369.302 245.887C369.65 246.235 369.846 246.707 369.846 247.2Z" fill="#FFBA53"/>
<path d="M197.961 212.037C197.963 212.407 197.855 212.769 197.65 213.078C197.446 213.387 197.155 213.627 196.813 213.77C196.471 213.913 196.095 213.95 195.732 213.879C195.369 213.807 195.035 213.629 194.773 213.367C194.512 213.105 194.334 212.772 194.262 212.409C194.19 212.046 194.228 211.669 194.371 211.328C194.513 210.986 194.754 210.695 195.063 210.49C195.371 210.286 195.734 210.178 196.104 210.18C196.596 210.18 197.069 210.375 197.417 210.724C197.765 211.072 197.961 211.544 197.961 212.037Z" fill="#FFBA53"/>
<path d="M208.251 209.51C208.251 209.878 208.142 210.237 207.938 210.542C207.734 210.847 207.444 211.086 207.105 211.226C206.765 211.367 206.392 211.403 206.032 211.332C205.672 211.26 205.341 211.083 205.081 210.823C204.821 210.564 204.644 210.233 204.573 209.873C204.501 209.512 204.538 209.139 204.678 208.8C204.819 208.46 205.057 208.17 205.362 207.966C205.668 207.762 206.027 207.653 206.394 207.653C206.638 207.653 206.88 207.701 207.105 207.795C207.33 207.888 207.535 208.025 207.707 208.197C207.88 208.37 208.017 208.574 208.11 208.8C208.203 209.025 208.251 209.266 208.251 209.51Z" fill="#FFBA53"/>
<path d="M205.318 252.213C205.318 252.58 205.209 252.939 205.005 253.244C204.801 253.55 204.511 253.788 204.171 253.928C203.832 254.069 203.459 254.106 203.098 254.034C202.738 253.962 202.407 253.785 202.147 253.526C201.888 253.266 201.711 252.935 201.639 252.575C201.568 252.215 201.604 251.841 201.745 251.502C201.885 251.163 202.123 250.872 202.429 250.668C202.734 250.464 203.093 250.355 203.461 250.355C203.953 250.355 204.425 250.551 204.774 250.899C205.122 251.248 205.318 251.72 205.318 252.213Z" fill="#FFBA53"/>
<path d="M214.14 262.25C214.14 262.617 214.031 262.976 213.827 263.281C213.623 263.587 213.333 263.825 212.993 263.965C212.654 264.106 212.281 264.143 211.921 264.071C211.56 263.999 211.229 263.822 210.97 263.563C210.71 263.303 210.533 262.972 210.461 262.612C210.39 262.252 210.427 261.878 210.567 261.539C210.708 261.2 210.946 260.91 211.251 260.706C211.556 260.501 211.916 260.393 212.283 260.393C212.775 260.393 213.248 260.588 213.596 260.937C213.944 261.285 214.14 261.757 214.14 262.25Z" fill="#FFBA53"/>
<path d="M208.209 231.958C209.234 231.958 210.066 231.127 210.066 230.101C210.066 229.076 209.234 228.244 208.209 228.244C207.183 228.244 206.352 229.076 206.352 230.101C206.352 231.127 207.183 231.958 208.209 231.958Z" fill="#FFBA53"/>
<path d="M277.459 228.43V241.149H274.497L268.883 234.372V241.149H265.358V228.43H268.32L273.934 235.208V228.43H277.459ZM283.594 231.21V234.009H289.209V236.789H283.594V241.149H279.997V228.43H289.972V231.21H283.594ZM294.451 231.283H290.544V228.43H301.937V231.283H298.048V241.149H294.451V231.283Z" fill="white"/>
</svg>
