<svg width="500" height="500" viewBox="0 0 500 500" fill="none" xmlns="http://www.w3.org/2000/svg">
<g opacity="0.5">
<g opacity="0.1">
<path d="M227.905 290.281V396.844L183.428 370.203L138.951 343.562L227.905 290.281Z" fill="url(#paint0_linear)"/>
<path d="M138.954 343.562L50 396.844V290.281L138.954 343.562Z" fill="url(#paint1_linear)"/>
<path d="M138.954 237V290.281L94.4769 316.922L50 290.281L138.954 237Z" fill="#4EC9F5"/>
<path d="M227.905 396.844L138.951 450.125V396.844L183.428 370.203L227.905 396.844Z" fill="#4EC9F5"/>
</g>
<g opacity="0.1">
<path d="M449.906 103.281V209.844L405.429 183.203L360.952 156.563L449.906 103.281Z" fill="url(#paint2_linear)"/>
<path d="M360.955 156.563L272.001 209.844V103.281L360.955 156.563Z" fill="url(#paint3_linear)"/>
<path d="M360.954 50V103.281L316.477 129.922L272 103.281L360.954 50Z" fill="#4EC9F5"/>
<path d="M449.906 209.844L360.952 263.125V209.844L405.429 183.203L449.906 209.844Z" fill="#4EC9F5"/>
</g>
</g>
<defs>
<linearGradient id="paint0_linear" x1="138.954" y1="343.562" x2="227.911" y2="343.562" gradientUnits="userSpaceOnUse">
<stop stop-color="#684EA0"/>
<stop offset="0.5755" stop-color="#5F429A"/>
<stop offset="1" stop-color="#583795"/>
</linearGradient>
<linearGradient id="paint1_linear" x1="50" y1="343.562" x2="138.957" y2="343.562" gradientUnits="userSpaceOnUse">
<stop stop-color="#694FA0"/>
<stop offset="0.5638" stop-color="#60429A"/>
<stop offset="1" stop-color="#583795"/>
</linearGradient>
<linearGradient id="paint2_linear" x1="360.955" y1="156.563" x2="449.912" y2="156.563" gradientUnits="userSpaceOnUse">
<stop stop-color="#684EA0"/>
<stop offset="0.5755" stop-color="#5F429A"/>
<stop offset="1" stop-color="#583795"/>
</linearGradient>
<linearGradient id="paint3_linear" x1="272.001" y1="156.563" x2="360.958" y2="156.563" gradientUnits="userSpaceOnUse">
<stop stop-color="#694FA0"/>
<stop offset="0.5638" stop-color="#60429A"/>
<stop offset="1" stop-color="#583795"/>
</linearGradient>
</defs>
</svg>
